<svg width="565" height="568" viewBox="0 0 565 568" fill="none" xmlns="http://www.w3.org/2000/svg">
<path d="M73.2172 562.299L66.3957 567.883L61.8481 565.091H54.1171V562.299L64.1219 554.722L67.76 553.127L68.2148 550.336L88.6792 536.777L98.6841 520.027V516.039L104.596 504.873L119.603 492.909L123.696 479.749V467.785L125.97 465.393V461.405H130.518V459.809L127.789 457.417V453.827L133.246 443.858V437.078L123.696 425.912V414.746H125.97L130.518 408.365V404.776L133.701 399.193V396.002H138.249V393.211L141.887 390.02L144.161 392.413H146.434L149.163 390.02H152.346L160.077 399.193V403.181L164.625 407.169H168.718L175.539 403.579H176.449L176.904 385.634H173.266V373.67L170.082 370.48V364.099L159.168 347.748V342.165L153.711 337.38V330.6L139.158 315.845H128.244L119.148 306.274H115.51L90.4983 289.126V283.144H98.6841L100.503 281.947V278.358H98.6841V272.376L93.6816 267.99V263.603H95.5007V261.21L87.7697 254.43V250.841L80.0387 242.467H71.3982L60.029 235.288H50.479L48.2051 237.681H45.0218L40.4741 239.276V240.872L44.1123 242.467V248.847H40.4741V245.657H35.9265L32.2884 242.467V232.098L14.0978 226.515V221.331H17.2811V217.741L15.9168 215.747H9.55011L2.72864 214.152V196.207H4.09293L5.45723 193.415V188.231L18.1906 177.862H21.8288V163.505L31.8336 121.632L36.836 117.245L37.7455 99.6984L39.1098 94.5141L44.567 87.3358V81.3539L47.7504 79.7587L44.567 73.378V38.2842L53.2076 41.8733H57.7552L65.4862 47.8552H71.8529L96.4102 58.6227L99.5936 57.8251L123.241 69.7889H127.789L147.344 78.5624L150.982 77.7648L160.987 84.1455V86.937H163.715L225.563 88.1334L232.84 94.5141H238.752V92.9189H250.121V106.079L255.123 116.448L264.219 118.043L269.676 122.43H274.678L280.135 130.804H282.409V130.007H287.866L289.685 132.4H297.871L299.235 139.578L306.966 147.952H311.514L313.333 149.149V153.536L318.336 157.922H332.433H352.898L364.267 167.095V171.481L368.36 170.285L379.274 159.518V153.536L391.098 143.167H394.281L398.829 133.197L418.839 116.448H422.022V112.46L426.115 108.871H429.753L437.484 101.692L462.951 87.3358V76.9672L469.318 72.5804L473.41 57.4263H479.777L486.144 51.8432H496.603L507.518 44.2661V39.8793L508.882 37.8854V34.695L512.065 31.9035H515.704V28.7131L525.708 20.3384V17.5469L528.892 15.5529V11.9638H531.166L532.985 3.98788H564.818V36.2902L559.361 44.2661V49.4504L556.178 53.0395V82.1515H547.082V80.1575H530.711L527.982 83.3479H525.708L523.889 87.7346H519.796L512.065 94.5141V97.7045H508.427V100.496H506.608L501.606 105.68V108.871L498.422 111.662V116.448L495.239 119.239V131.602H491.146L487.963 134.792H483.415L481.141 133.197H475.229L462.496 139.578V141.572H458.403L442.032 153.536H437.484L431.572 161.512L424.751 164.702L417.929 177.463L409.743 178.66L397.465 191.421V200.195L391.098 209.766V217.343H387.46L386.096 222.926L380.184 226.914H377.91L373.362 232.098H371.543L367.45 242.865L357.445 246.455L350.624 256.424L340.164 266.394L331.978 284.34L312.424 308.666L311.059 317.041L306.057 322.225V333.392L298.781 345.754V354.129H297.871V356.123V365.694L296.507 366.492L294.233 372.075H295.597V375.265H296.507V380.848H297.871V392.413L300.145 394.806V405.573L307.876 411.954V417.936H306.057V423.12H303.328L299.235 419.93H281.5L275.133 425.513L267.857 430.299L266.038 437.876L262.854 439.072L254.214 450.637V452.631L246.937 464.196L245.118 470.178L240.571 476.958L233.294 474.964L229.202 473.368L224.654 471.773V467.386H231.021L233.294 468.982H239.661V462.601L236.023 461.405V458.214L239.661 455.821V450.637L227.837 440.667H218.287L200.551 443.459L197.823 444.655H191.456V449.441H184.635L178.723 455.024H175.085L160.532 464.994H157.803L150.982 471.374L137.339 489.32L118.694 508.063L105.051 528.003L83.6768 548.74V553.526L78.2196 557.913H73.2172V562.299Z" fill="#4D5466"/>
<path d="M215.104 400.788V406.371V410.359L209.647 417.537V420.329H206.463V418.734H203.28L196.458 410.359V400.788H198.277V399.592L196.004 396.8H193.275V393.61L195.094 392.812V386.033H187.818L184.634 382.443L185.999 381.247V378.455L182.361 375.664V366.89H179.632L175.084 356.123H173.265V348.147H170.537V340.57H165.989V332.195H168.263L175.994 325.416V320.232H170.537V313.851L175.084 311.857V307.869H183.27V297.5H176.903V291.917L178.723 290.721V286.334L174.175 284.34V275.965H175.084V270.382H176.903V265.996H171.446V263.603L158.713 251.24V248.449L155.984 246.056H153.256L144.16 239.276L150.527 232.497L157.803 236.884H163.261L169.172 230.104H173.72V225.319H170.537V221.331L167.353 218.14V215.349H172.356L180.996 217.742V228.509L174.175 234.89V240.872H188.273L199.642 232.497L201.461 233.294V240.074H204.189L215.104 254.032V264.799L213.285 267.08V275.168L212.375 276.364V284.739L211.011 286.334H209.647L207.827 284.34H203.28V292.715L208.737 297.899H211.92V300.691L215.104 303.881V312.256H216.923V313.851L217.832 314.25V315.446V319.833L211.466 327.809V333.791L213.285 334.987V338.177L215.104 340.171V354.927L209.647 358.117V361.307L206.463 362.504V366.093L213.285 374.069H217.832V379.652L215.104 382.045V390.818L216.923 392.812L217.832 395.604H214.194V400.788H215.104Z" fill="#242833"/>
<path d="M291.504 351.736H295.142V352.534V361.706L294.233 362.504L291.959 368.087H292.869V371.277H293.778V376.86H295.142V388.425L296.961 390.419L297.416 401.586L305.147 407.966V414.347H303.783V419.133H300.6L296.961 415.942H278.771L272.404 421.525L265.128 426.311L263.309 434.287L260.58 435.084L251.485 447.048V448.643L244.209 459.81L242.39 466.19L237.842 472.97L236.023 472.571L230.566 470.976L226.928 469.381L222.38 467.785V463.798H228.292L230.566 465.393H236.932V459.012L233.294 457.417V454.226L236.932 451.834V446.649L225.563 436.68H217.832V432.692L219.651 431.096V416.74H221.016V413.948H222.38V410.359L216.923 406.371V399.592L216.013 398.794V397.199H218.742L221.925 399.991V405.574H226.928V404.377L231.475 400.788V392.812L241.48 385.634V382.842L247.392 373.67H250.575V371.676L252.395 370.16V363.301L260.126 361.706L261.49 360.51V357.718L266.492 356.123L267.857 353.73L275.133 351.736V348.945H277.407V350.141H281.954V353.332H290.14L291.504 351.736Z" fill="#242833"/>
<path d="M168.718 110.067L185.999 135.989L178.268 145.56H172.356L165.08 155.53V161.113L161.442 166.696L159.168 174.273V180.654L180.542 211.361V215.747L172.811 213.753H165.534V219.337L168.718 222.128V226.914H171.901V228.509H168.263L162.351 235.288H158.258L150.072 230.503L142.796 238.479L137.339 234.491V237.681L129.608 246.853H125.515V251.639L122.787 254.032H115.056L110.053 250.443V246.853L114.146 244.062V239.675L108.689 237.681L108.234 226.515L105.051 224.521V218.938L100.048 211.76H97.3197L91.8625 216.146H88.6791L79.1291 208.968H71.8528L70.4885 210.164H63.2123V204.98H51.8432L42.2931 210.164H32.2883V201.79H34.5621V197.004H28.6502V189.028L22.2835 179.457V172.678H19.1001V159.518L29.1049 117.644L34.1073 113.257L35.0169 96.1093L36.3812 90.5262L41.8383 83.3479V77.366L45.0217 75.7708L41.8383 69.3901V34.2962L50.4789 37.8854H55.0265L62.7575 43.8673H69.1242L93.6815 54.6347L96.8649 53.8371L120.513 65.801H125.06L144.615 74.5744L148.253 73.7768L158.258 80.1575V86.937L168.718 98.5021V110.067Z" fill="#242833"/>
<path d="M296.052 341.766V350.141H291.05L289.231 351.736H283.774V348.546H278.771V336.582L264.219 331.797L268.767 309.464H285.593V304.28L281.045 301.488V299.494L286.957 296.304H294.688L297.871 286.733L301.964 284.739L299.236 276.364H294.688L291.05 277.561H286.957L283.774 273.573H281.045L275.133 261.21H271.04V253.633H273.314V242.467H264.219V247.252H254.214L250.121 244.461V235.687L256.033 219.735V211.76H268.767V201.391H273.314L275.133 198.201H277.862L281.045 201.391H289.231L291.05 198.201H294.688L299.236 202.986H304.238L311.514 193.415V188.231H319.7L327.431 181.451V171.083L329.705 164.702V153.934H350.169L361.539 163.107V167.493L365.631 166.297L376.546 155.53V149.548L388.37 139.179H391.553L396.101 129.209L416.11 112.46H419.294V108.472L423.387 104.883H427.025L434.756 97.7045L460.223 83.3479V72.9793L466.589 68.1938L470.682 53.4384H477.049L483.416 47.8553H493.875L504.79 40.2782V35.8915L506.154 33.8975V30.7071L509.337 27.9156H512.975V24.7252L522.98 16.3506V13.559L526.164 11.565V7.97588H528.437L530.256 0H562.09V32.3023L556.633 40.2782V45.4625L553.449 49.0517V78.1636H544.354V76.1696H527.983L525.709 79.36H522.525L520.706 83.3479H517.068L508.882 90.5262V93.7166H505.699V96.5081H503.425L498.423 102.091V104.883L495.239 107.276V112.46L492.511 115.251V127.614H488.418L485.235 130.804H480.687L478.413 129.209H472.956L459.768 135.191V137.584H455.675L439.758 149.548H434.756L429.299 157.524L422.022 160.714L415.201 173.475L407.015 174.672L394.736 187.034V196.207L388.37 205.778V213.355H384.732L383.367 218.539L377.91 222.926H375.182L371.089 228.11H368.815L364.722 238.878L354.717 242.467L347.896 252.038L337.436 262.406L329.25 279.953L309.695 304.28L308.331 313.053L303.329 318.238V329.404L296.052 341.766Z" fill="#242833"/>
<path d="M276.952 337.778V347.349H273.769V350.54L266.492 352.534L265.128 354.927L259.671 356.921V359.313L258.761 360.51L250.575 362.105V369.283L248.756 370.878V372.075H246.483L239.661 382.443V384.836L229.656 391.616V399.99L225.563 403.181V404.377H223.29V399.193L220.106 396.401L218.742 392.014L216.923 390.419V383.241L219.651 380.848V372.872H214.194L208.282 365.694V363.7L211.466 362.504V359.313L216.923 356.123V339.374L215.104 337.778V334.588L213.285 332.993V328.207L219.651 320.231V315.446H220.561V313.053H218.742V310.66H216.923V303.482L213.74 299.893V296.304H209.647L205.099 291.917V285.935H206.918L208.737 287.929H211.011L214.194 285.536V277.162L215.104 276.364V267.989L216.923 265.198V253.633L205.099 238.479H203.28V232.497L201.461 231.699V225.319L211.92 216.146L218.287 214.95L242.844 238.479H247.847V244.859L253.759 249.246H266.038V244.062H271.495V252.038H269.221V262.805H273.769L280.135 275.567H282.864L286.502 279.555H291.504L295.142 277.959H297.871L299.69 283.941L296.052 285.935L293.323 294.709H286.047L279.226 298.697V302.286L283.773 305.077V307.869H267.402L261.945 332.594L276.952 337.778Z" fill="#242833"/>
<path d="M327.431 164.702V153.934H315.607L310.604 149.548V145.161L308.785 143.965H304.238L296.507 135.59L295.142 128.412H286.957L285.138 126.019H279.68V126.816H277.407L271.949 118.442H266.947L261.49 114.055L252.395 112.46L247.392 102.49V88.931H236.023V90.5262H230.111L222.835 84.1454L160.987 82.9491V86.5382L170.992 98.1032V108.871L188.727 135.989L179.177 147.155H173.72L167.354 155.928V161.91L163.261 167.493L161.442 174.672V179.856L182.816 210.962V229.306L175.994 235.687V239.276H187.363L199.642 230.503V224.521L211.011 214.551L218.742 212.956L243.299 236.086H247.392L253.759 218.938V209.367H266.947V199.796H271.949L275.133 195.409H277.861L281.954 199.796H287.411L291.05 195.808H295.142L300.145 200.992H303.328L309.24 192.617V186.237H318.79L325.157 180.654V170.684L327.431 164.702Z" fill="#242833"/>
<path d="M196.004 399.592L194.639 399.99L195.094 408.764H193.275V403.579L189.637 400.788V396.8H185.089L181.451 400.389H180.087V398.395H173.72L174.175 389.622V381.646H170.537V369.682L167.354 366.492V360.111L156.439 343.76V338.177L150.982 333.392V326.612L136.43 311.857H125.515L116.42 302.286H112.782L87.7696 285.138V279.156H95.9554L97.7745 277.959V274.37H95.9554V268.388L90.953 264.002V259.615H92.7721V257.222L85.0411 250.443V246.853L77.3101 238.479H68.6695L57.3004 231.301H47.7503L45.4765 233.693H42.2931L37.7455 235.288V236.884L41.3836 238.479V244.859H37.7455V241.669H33.1978L29.5597 238.479V228.11L11.3691 222.527V217.343H14.5525V213.754L13.1882 211.76H6.82148L0 210.164V192.219H1.3643L2.72859 189.427V184.243L15.462 173.874H20.0097V179.856L26.8311 189.427V198.599H33.1978V200.195H30.4693V211.76H42.7479L52.7527 206.575H61.3933V211.76H71.3981L73.2172 210.563H78.6743L88.2244 217.742H93.2268L97.7745 213.355H99.1388L103.232 219.337V225.319L106.415 227.711L106.87 238.479L112.327 240.872V243.264L108.234 245.657V251.24L114.601 255.627H123.696L127.334 252.835V248.449H130.518L137.794 239.675L139.158 237.681L152.346 247.651H155.53L156.894 249.246V251.639L169.627 264.002V267.591H175.085V268.787H173.265V274.769H171.901V285.331L176.904 287.53V289.923L175.085 291.12V299.095H181.451V306.274H173.265V311.059L168.718 312.654V321.827H174.175V325.017L167.354 330.6H164.17V342.165H168.718V349.742H171.446V357.718H173.72L178.268 368.486H180.542V376.86L184.18 378.854V380.848L182.361 382.045L186.454 387.628H193.275V391.616L191.456 392.812V397.996H195.094L196.004 399.592Z" fill="#242833"/>
<path d="M216.013 431.894V436.68L198.278 439.87L195.549 441.066H188.727V445.453H181.906L176.449 451.036H172.356L157.803 461.405H155.075L148.708 466.988L134.61 485.332L115.965 504.076L102.322 524.015L80.9482 544.753V549.538L75.9457 553.925H70.4886V557.913L63.6671 563.895L59.1194 561.103H51.3884V558.312L61.3933 550.735L65.0314 549.538L65.4861 546.348L85.9506 532.789L95.9554 516.04V512.052L101.867 500.885L116.875 488.922L120.967 475.761V463.798L123.241 461.405V457.417H127.789V455.822L125.06 453.03V449.84L130.518 439.87V433.09L120.967 421.924V410.758H123.241L127.789 404.377V400.788L130.972 395.205V392.015H135.52V389.223L139.158 386.033L141.432 388.426H143.706L146.434 386.033H149.618L157.349 395.205V399.193L161.896 403.181H165.989L172.811 399.592H178.723V401.586H181.906L185.999 397.997H187.818V401.586L191.911 404.377V410.359H194.639L202.37 420.329H205.099V421.924H206.918H211.466V417.936L216.923 411.157V408.365L220.561 410.758V412.353H219.197V415.145H217.832V419.133V420.329V429.9L216.013 431.894Z" fill="#242833"/>
</svg>
