<svg width="566" height="509" viewBox="0 0 566 509" fill="none" xmlns="http://www.w3.org/2000/svg">
<path d="M74.0185 503.991L67.197 508.994L62.6494 506.493H54.9184V503.991L64.9232 497.202L68.5613 495.773L69.0161 493.271L89.4805 481.122L99.4853 466.113V462.54L105.397 452.535L120.405 441.815L124.497 430.022V419.302L126.771 417.158V413.585H131.319V412.155L128.59 410.011V406.795L134.047 397.862V391.787L124.497 381.782V371.776H126.771L131.319 366.059V362.843L134.502 357.84V354.981H139.05V352.48L142.688 349.621L144.962 351.765H147.236L149.964 349.621H153.148L160.879 357.84V361.414L165.426 364.987H169.519L176.341 361.771H177.25L177.705 345.691H174.067V334.971L170.883 332.112V326.394L159.969 311.744V306.741L154.512 302.453V296.378L139.959 283.157H129.045L119.95 274.58H116.312L91.2996 259.215V253.855H99.4853L101.304 252.783V249.567H99.4853V244.207L94.4829 240.276V236.345H96.302V234.201L88.571 228.127V224.91L80.84 217.406H72.1994L60.8303 210.974H51.2802L49.0064 213.118H45.8231L41.2754 214.548V215.977L44.9135 217.406V223.124H41.2754V220.265H36.7278L33.0896 217.406V208.116L14.899 203.113V198.467H18.0824V195.251L16.7181 193.465H10.3514L3.52991 192.035V175.955H4.8942L6.2585 173.454V168.808L18.9919 159.518H22.63V146.654L32.6349 109.133L37.6373 105.202L38.5468 89.4795L39.9111 84.8341L45.3683 78.402V73.0419L48.5516 71.6126L45.3683 65.8952V34.4494L54.0088 37.6655H58.5565L66.2875 43.0255H72.6542L97.2115 52.6737L100.395 51.959L124.043 62.6791H128.59L148.145 70.5406L151.783 69.8259L161.788 75.5433V78.0446H164.517L226.365 79.1167L233.641 84.8341H239.553V83.4047H250.922V95.1969L255.924 104.488L265.02 105.917L270.477 109.848H275.479L280.937 117.352H283.21V116.637H288.668L290.487 118.781H298.672L300.037 125.213L307.768 132.717H312.315L314.134 133.789V137.72L319.137 141.651H333.235H353.699L365.068 149.87V153.8L369.161 152.728L380.075 143.08V137.72L391.899 128.429H395.083L399.63 119.496L419.64 104.488H422.823V100.914L426.916 97.6982H430.554L438.285 91.2661L463.752 78.402V69.1112L470.119 65.1805L474.212 51.6017H480.578L486.945 46.5989H497.405L508.319 39.8095V35.8788L509.683 34.0921V31.2334L512.867 28.732H516.505V25.8733L526.51 18.3692V15.8679L529.693 14.0812V10.8651H531.967L533.786 3.71838H565.619V32.6627L560.162 39.8095V44.4549L556.979 47.6709V73.7566H547.884V71.9699H531.512L528.783 74.8286H526.51L524.691 78.7593H520.598L512.867 84.8341V87.6928H509.229V90.1941H507.41L502.407 94.8395V97.6982L499.224 100.2V104.488L496.04 106.989V118.066H491.948L488.764 120.925H484.216L481.943 119.496H476.031L463.297 125.213V127H459.204L442.833 137.72H438.285L432.373 144.867L425.552 147.726L418.73 159.16L410.545 160.232L398.266 171.667V179.529L391.899 188.105V194.894H388.261L386.897 199.897L380.985 203.47H378.711L374.163 208.116H372.344L368.251 217.764L358.247 220.98L351.425 229.913L340.966 238.847L332.78 254.927L313.225 276.724L311.861 284.229L306.858 288.874V298.879L299.582 309.957V317.461H298.672V319.248V327.824L297.308 328.538L295.034 333.541H296.399V336.4H297.308V341.403H298.672V351.765L300.946 353.909V363.558L308.677 369.275V374.635H306.858V379.28H304.13L300.037 376.422H282.301L275.934 381.424L268.658 385.712L266.839 392.502L263.655 393.574L255.015 403.937V405.723L247.739 416.086L245.92 421.446L241.372 427.521L234.096 425.734L230.003 424.305L225.455 422.876V418.945H231.822L234.096 420.374H240.462V414.657L236.824 413.585V410.726L240.462 408.582V403.937L228.639 395.003H219.089L201.353 397.505L198.624 398.577H192.257V402.865H185.436L179.524 407.867H175.886L161.333 416.801H158.605L151.783 422.518L138.14 438.598L119.495 455.393L105.852 473.26L84.4781 491.842V496.13L79.0209 500.061H74.0185V503.991Z" fill="#4D5466"/>
<path d="M215.905 359.269V364.272V367.846L210.448 374.278V376.779H207.265V375.35H204.081L197.26 367.846V359.269H199.079V358.197L196.805 355.696H194.076V352.837L195.895 352.123V346.048H188.619L185.436 342.832L186.8 341.76V339.259L183.162 336.757V328.896H180.433L175.886 319.248H174.067V312.101H171.338V305.311H166.791V297.807H169.064L176.795 291.733V287.087H171.338V281.37L175.886 279.583V276.01H184.072V266.719H177.705V261.716L179.524 260.644V256.714L174.976 254.927V247.423H175.886V242.42H177.705V238.489H172.248V236.345L159.514 225.268V222.766L156.786 220.622H154.057L144.962 214.548L151.329 208.473L158.605 212.404H164.062L169.974 206.329H174.522V202.041H171.338V198.467L168.155 195.609V193.107H173.157L181.798 195.251V204.9L174.976 210.617V215.977H189.074L200.443 208.473L202.262 209.188V215.262H204.991L215.905 227.769V237.417L214.086 239.461V246.708L213.177 247.78V255.284L211.812 256.714H210.448L208.629 254.927H204.081V262.431L209.538 267.076H212.722V269.578L215.905 272.436V279.94H217.724V281.37L218.634 281.727V282.799V286.73L212.267 293.877V299.237L214.086 300.309V303.167L215.905 304.954V318.176L210.448 321.034V323.893L207.265 324.965V328.181L214.086 335.328H218.634V340.331L215.905 342.475V350.336L217.724 352.123L218.634 354.624H214.996V359.269H215.905Z" fill="#242833"/>
<rect x="182.118" y="284.18" width="18" height="22" rx="1.5" fill="#254594"/>
<rect x="182.118" y="284.18" width="18" height="22" rx="1.5" stroke="#5C76B6"/>
<path d="M190.788 300.839C190.008 300.839 189.311 300.704 188.697 300.435C188.087 300.166 187.604 299.793 187.248 299.316C186.896 298.835 186.707 298.278 186.68 297.645H188.464C188.487 297.99 188.603 298.289 188.811 298.543C189.023 298.793 189.299 298.986 189.64 299.123C189.981 299.259 190.36 299.327 190.777 299.327C191.235 299.327 191.64 299.248 191.993 299.089C192.349 298.93 192.627 298.708 192.828 298.424C193.029 298.136 193.129 297.805 193.129 297.43C193.129 297.039 193.029 296.697 192.828 296.401C192.631 296.102 192.341 295.867 191.959 295.697C191.58 295.526 191.121 295.441 190.584 295.441H189.601V294.009H190.584C191.015 294.009 191.394 293.931 191.72 293.776C192.049 293.621 192.307 293.405 192.493 293.128C192.678 292.848 192.771 292.52 192.771 292.145C192.771 291.786 192.69 291.473 192.527 291.208C192.368 290.939 192.14 290.729 191.845 290.577C191.553 290.426 191.209 290.35 190.811 290.35C190.432 290.35 190.078 290.42 189.748 290.56C189.423 290.697 189.157 290.894 188.953 291.151C188.748 291.405 188.639 291.71 188.623 292.066H186.924C186.943 291.437 187.129 290.884 187.481 290.407C187.837 289.93 188.307 289.556 188.89 289.288C189.474 289.019 190.121 288.884 190.834 288.884C191.58 288.884 192.224 289.03 192.765 289.322C193.311 289.609 193.731 289.994 194.027 290.475C194.326 290.956 194.474 291.483 194.47 292.055C194.474 292.706 194.292 293.259 193.924 293.714C193.561 294.168 193.076 294.473 192.47 294.628V294.719C193.243 294.837 193.841 295.144 194.265 295.64C194.693 296.136 194.906 296.752 194.902 297.486C194.906 298.127 194.728 298.7 194.368 299.208C194.012 299.716 193.525 300.115 192.907 300.407C192.29 300.695 191.584 300.839 190.788 300.839Z" fill="#B3CDEC"/>
<path d="M292.306 315.317H295.944V316.032V324.251L295.034 324.965L292.76 329.968H293.67V332.827H294.579V337.829H295.944V348.192L297.763 349.979L298.218 359.984L305.949 365.702V371.419H304.584V375.707H301.401L297.763 372.848H279.572L273.205 377.851L265.929 382.139L264.11 389.286L261.382 390.001L252.286 400.721V402.15L245.01 412.156L243.191 417.873L238.643 423.948L236.824 423.59L231.367 422.161L227.729 420.732L223.181 419.302V415.729H229.093L231.367 417.158H237.734V411.441L234.096 410.012V407.153L237.734 405.009V400.363L226.365 391.43H218.634V387.857L220.453 386.427V373.563H221.817V371.062H223.181V367.846L217.724 364.272V358.198L216.815 357.483V356.054H219.543L222.727 358.555V363.558H227.729V362.486L232.277 359.27V352.123L242.281 345.691V343.189L248.193 334.971H251.377V333.184L253.196 331.826V325.68L260.927 324.251L262.291 323.179V320.677L267.293 319.248L268.658 317.104L275.934 315.317V312.816H278.208V313.888H282.755V316.746H290.941L292.306 315.317Z" fill="#242833"/>
<rect x="251.336" y="343.671" width="15" height="22" rx="1.5" fill="#254594"/>
<rect x="251.336" y="343.671" width="15" height="22" rx="1.5" stroke="#5C76B6"/>
<path d="M260.37 348.535V360.171H258.609V350.296H258.541L255.757 352.115V350.433L258.66 348.535H260.37Z" fill="#B3CDEC"/>
<path d="M169.519 98.7702L186.8 121.997L179.069 130.573H173.157L165.881 139.507V144.509L162.243 149.512L159.969 156.302V162.019L181.343 189.534V193.465L173.612 191.678H166.336V196.681L169.519 199.182V203.47H172.702V204.899H169.064L163.152 210.974H159.059L150.874 206.686L143.597 213.833L138.14 210.26V213.118L130.409 221.337H126.316V225.625L123.588 227.769H115.857L110.854 224.553V221.337L114.947 218.836V214.905L109.49 213.118L109.035 203.113L105.852 201.326V196.323L100.85 189.891H98.1209L92.6638 193.822H89.4804L79.9303 187.39H72.6541L71.2898 188.462H64.0136V183.817H52.6444L43.0944 188.462H33.0896V180.958H35.3634V176.67H29.4514V169.523L23.0847 160.947V154.872H19.9014V143.08L29.9062 105.56L34.9086 101.629L35.8181 86.2633L37.1824 81.2606L42.6396 74.8285V69.4685L45.823 68.0391L42.6396 62.3217V30.876L51.2801 34.092H55.8278L63.5588 39.4521H69.9255L94.4828 49.1002L97.6662 48.3855L121.314 59.1057H125.862L145.416 66.9671L149.055 66.2524L159.059 71.9698V78.0446L169.519 88.4074V98.7702Z" fill="#242833"/>
<rect x="78.9956" y="115.831" width="17" height="22" rx="1.5" fill="#254594"/>
<rect x="78.9956" y="115.831" width="17" height="22" rx="1.5" stroke="#5C76B6"/>
<path d="M84.007 132.331L89.0865 122.286V122.2H83.2115V120.695H90.9047V122.251L85.8422 132.331H84.007Z" fill="#B3CDEC"/>
<path d="M296.854 306.384V313.888H291.851L290.032 315.317H284.575V312.458H279.573V301.738L265.02 297.45L269.568 277.439H286.394V272.794L281.846 270.292V268.506L287.758 265.647H295.489L298.673 257.071L302.766 255.284L300.037 247.78H295.489L291.851 248.852H287.758L284.575 245.279H281.846L275.934 234.201H271.842V227.412H274.115V217.406H265.02V221.694H255.015L250.922 219.193V211.332L256.834 197.038V189.891H269.568V180.601H274.115L275.934 177.742H278.663L281.846 180.601H290.032L291.851 177.742H295.489L300.037 182.03H305.039L312.316 173.454V168.808H320.501L328.232 162.734V153.443L330.506 147.726V138.077H350.971L362.34 146.296V150.227L366.433 149.155L377.347 139.507V134.147L389.171 124.856H392.354L396.902 115.922L416.912 100.914H420.095V97.3409L424.188 94.1249H427.826L435.557 87.6928L461.024 74.8286V65.5378L467.391 61.2498L471.483 48.0283H477.85L484.217 43.0256H494.676L505.591 36.2361V32.3054L506.955 30.5187V27.66L510.138 25.1587H513.777V22.3L523.781 14.7959V12.2945L526.965 10.5078V7.29178H529.239L531.058 0.14502H562.891V29.0894L557.434 36.2361V40.8815L554.251 44.0976V70.1832H545.155V68.3965H528.784L526.51 71.2552H523.327L521.508 74.8286H517.869L509.684 81.2607V84.1194H506.5V86.6208H504.226L499.224 91.6235V94.1249L496.041 96.2689V100.914L493.312 103.416V114.493H489.219L486.036 117.352H481.488L479.214 115.922H473.757L460.569 121.283V123.427H456.476L440.559 134.147H435.557L430.1 141.293L422.824 144.152L416.002 155.587L407.816 156.659L395.538 167.736V175.955L389.171 184.531V191.321H385.533L384.169 195.966L378.711 199.897H375.983L371.89 204.542H369.616L365.523 214.19L355.518 217.406L348.697 225.983L338.237 235.273L330.051 250.996L310.497 272.794L309.132 280.655L304.13 285.301V295.306L296.854 306.384Z" fill="#11131A"/>
<rect x="341.745" y="167.728" width="18" height="22" rx="1.5" fill="#254594"/>
<rect x="341.745" y="167.728" width="18" height="22" rx="1.5" stroke="#5C76B6"/>
<path d="M350.296 184.387C349.482 184.387 348.762 184.247 348.137 183.966C347.516 183.686 347.029 183.3 346.677 182.807C346.325 182.315 346.15 181.754 346.154 181.126C346.15 180.633 346.251 180.18 346.455 179.768C346.664 179.351 346.946 179.004 347.302 178.728C347.658 178.448 348.056 178.27 348.495 178.194V178.126C347.915 177.985 347.451 177.675 347.103 177.194C346.754 176.713 346.582 176.16 346.586 175.535C346.582 174.94 346.739 174.41 347.057 173.944C347.379 173.474 347.821 173.105 348.381 172.836C348.942 172.567 349.58 172.432 350.296 172.432C351.004 172.432 351.637 172.569 352.194 172.841C352.754 173.11 353.196 173.48 353.518 173.949C353.84 174.415 354.003 174.944 354.006 175.535C354.003 176.16 353.825 176.713 353.472 177.194C353.12 177.675 352.662 177.985 352.097 178.126V178.194C352.533 178.27 352.925 178.448 353.273 178.728C353.626 179.004 353.906 179.351 354.114 179.768C354.326 180.18 354.434 180.633 354.438 181.126C354.434 181.754 354.256 182.315 353.904 182.807C353.552 183.3 353.063 183.686 352.438 183.966C351.817 184.247 351.103 184.387 350.296 184.387ZM350.296 182.949C350.777 182.949 351.194 182.87 351.546 182.711C351.898 182.548 352.171 182.323 352.364 182.035C352.557 181.743 352.656 181.402 352.66 181.012C352.656 180.607 352.55 180.249 352.342 179.938C352.137 179.627 351.859 179.383 351.506 179.205C351.154 179.027 350.751 178.938 350.296 178.938C349.838 178.938 349.431 179.027 349.075 179.205C348.718 179.383 348.438 179.627 348.234 179.938C348.029 180.249 347.929 180.607 347.932 181.012C347.929 181.402 348.022 181.743 348.211 182.035C348.404 182.323 348.679 182.548 349.035 182.711C349.391 182.87 349.811 182.949 350.296 182.949ZM350.296 177.535C350.682 177.535 351.025 177.457 351.325 177.302C351.624 177.146 351.859 176.93 352.029 176.654C352.203 176.377 352.292 176.054 352.296 175.682C352.292 175.319 352.205 175.001 352.035 174.728C351.868 174.455 351.635 174.245 351.336 174.097C351.037 173.946 350.69 173.87 350.296 173.87C349.895 173.87 349.542 173.946 349.239 174.097C348.94 174.245 348.707 174.455 348.54 174.728C348.374 175.001 348.292 175.319 348.296 175.682C348.292 176.054 348.376 176.377 348.546 176.654C348.717 176.93 348.951 177.146 349.251 177.302C349.554 177.457 349.902 177.535 350.296 177.535Z" fill="#B3CDEC"/>
<path d="M277.753 302.81V311.386H274.57V314.245L267.293 316.032L265.929 318.176L260.472 319.962V322.106L259.562 323.178L251.377 324.608V331.04L249.558 332.469V333.541H247.284L240.462 342.832V344.976L230.458 351.051V358.555L226.365 361.413V362.486H224.091V357.84L220.907 355.339L219.543 351.408L217.724 349.979V343.547L220.453 341.403V334.256H214.996L209.084 327.824V326.037L212.267 324.965V322.106L217.724 319.248V304.239L215.905 302.81V299.951L214.086 298.522V294.234L220.453 287.087V282.799H221.362V280.655H219.543V278.511H217.724V272.079L214.541 268.863V265.647H210.448L205.9 261.716V256.356H207.719L209.538 258.143H211.812L214.996 255.999V248.495L215.905 247.78V240.276L217.724 237.775V227.412L205.9 213.833H204.081V208.473L202.262 207.758V202.041L212.722 193.822L219.088 192.75L243.646 213.833H248.648V219.55L254.56 223.481H266.839V218.836H272.296V225.982H270.022V235.631H274.57L280.936 247.065H283.665L287.303 250.639H292.306L295.944 249.209H298.672L300.491 254.569L296.853 256.356L294.125 264.218H286.848L280.027 267.791V271.007L284.575 273.508V276.01H268.203L262.746 298.165L277.753 302.81Z" fill="#242833"/>
<rect x="232.972" y="248.738" width="17" height="22" rx="1.5" fill="#254594"/>
<rect x="232.972" y="248.738" width="17" height="22" rx="1.5" stroke="#5C76B6"/>
<path d="M241.432 265.397C240.72 265.397 240.08 265.26 239.512 264.988C238.948 264.711 238.497 264.332 238.16 263.851C237.823 263.37 237.643 262.821 237.62 262.204H239.324C239.366 262.704 239.588 263.115 239.989 263.437C240.391 263.759 240.872 263.92 241.432 263.92C241.879 263.92 242.275 263.817 242.62 263.613C242.968 263.404 243.241 263.118 243.438 262.755C243.639 262.391 243.739 261.976 243.739 261.51C243.739 261.037 243.637 260.615 243.432 260.243C243.228 259.872 242.946 259.581 242.586 259.368C242.23 259.156 241.821 259.048 241.359 259.045C241.006 259.045 240.652 259.105 240.296 259.226C239.94 259.348 239.652 259.507 239.432 259.704L237.824 259.465L238.478 253.601H244.876V255.107H239.938L239.569 258.363H239.637C239.864 258.143 240.165 257.959 240.54 257.812C240.919 257.664 241.324 257.59 241.756 257.59C242.465 257.59 243.095 257.759 243.648 258.096C244.205 258.433 244.643 258.893 244.961 259.476C245.283 260.056 245.442 260.723 245.438 261.476C245.442 262.23 245.271 262.903 244.927 263.493C244.586 264.084 244.112 264.55 243.506 264.891C242.904 265.228 242.213 265.397 241.432 265.397Z" fill="#B3CDEC"/>
<path d="M328.232 147.725V138.077H316.408L311.406 134.147V130.216L309.587 129.144H305.039L297.308 121.64L295.944 115.208H287.758L285.939 113.064H280.482V113.778H278.208L272.751 106.274H267.748L262.291 102.344L253.196 100.914L248.193 91.9807V79.8313H236.824V81.2606H230.912L223.636 75.5432L161.788 74.4712V77.6872L171.793 88.05V97.6981L189.529 121.997L179.979 132.003H174.521L168.155 139.864V145.224L164.062 150.227L162.243 156.659V161.304L183.617 189.177V205.614L176.795 211.332V214.548H188.164L200.443 206.686V201.326L211.812 192.393L219.543 190.963L244.1 211.689H248.193L254.56 196.323V187.747H267.748V179.171H272.751L275.934 175.24H278.663L282.755 179.171H288.213L291.851 175.598H295.944L300.946 180.243H304.129L310.041 172.739V167.022H319.591L325.958 162.019V153.085L328.232 147.725Z" fill="#242833"/>
<rect x="227.322" y="133.552" width="18" height="22" rx="1.5" fill="#254594"/>
<rect x="227.322" y="133.552" width="18" height="22" rx="1.5" stroke="#5C76B6"/>
<path d="M236.003 150.211C235.485 150.203 234.973 150.109 234.469 149.927C233.969 149.745 233.515 149.442 233.106 149.018C232.697 148.593 232.369 148.023 232.123 147.308C231.88 146.592 231.759 145.698 231.759 144.626C231.759 143.611 231.86 142.709 232.06 141.921C232.265 141.133 232.558 140.468 232.941 139.927C233.324 139.381 233.786 138.967 234.327 138.682C234.869 138.398 235.477 138.256 236.151 138.256C236.844 138.256 237.46 138.393 237.998 138.665C238.536 138.938 238.971 139.315 239.305 139.796C239.642 140.277 239.856 140.825 239.947 141.438H238.214C238.096 140.953 237.863 140.558 237.515 140.251C237.166 139.944 236.712 139.79 236.151 139.79C235.299 139.79 234.634 140.162 234.157 140.904C233.683 141.647 233.445 142.679 233.441 144.001H233.526C233.727 143.671 233.973 143.391 234.265 143.16C234.56 142.925 234.89 142.745 235.253 142.62C235.621 142.491 236.007 142.427 236.413 142.427C237.087 142.427 237.697 142.592 238.242 142.921C238.791 143.247 239.229 143.698 239.555 144.273C239.88 144.849 240.043 145.508 240.043 146.251C240.043 146.993 239.875 147.665 239.538 148.268C239.204 148.87 238.735 149.347 238.128 149.7C237.522 150.048 236.814 150.218 236.003 150.211ZM235.998 148.734C236.445 148.734 236.844 148.624 237.197 148.404C237.549 148.184 237.827 147.889 238.032 147.518C238.236 147.147 238.339 146.732 238.339 146.273C238.339 145.826 238.238 145.419 238.038 145.052C237.841 144.684 237.568 144.393 237.219 144.177C236.875 143.961 236.481 143.853 236.038 143.853C235.7 143.853 235.388 143.917 235.1 144.046C234.816 144.175 234.566 144.353 234.35 144.58C234.134 144.808 233.964 145.069 233.839 145.364C233.717 145.656 233.657 145.965 233.657 146.29C233.657 146.726 233.757 147.129 233.958 147.501C234.163 147.872 234.441 148.171 234.793 148.398C235.149 148.622 235.551 148.734 235.998 148.734Z" fill="#B3CDEC"/>
<path d="M196.805 358.197L195.441 358.555L195.895 366.416H194.076V361.771L190.438 359.269V355.696H185.891L182.253 358.912H180.888V357.125H174.522L174.976 349.264V342.117H171.338V331.397L168.155 328.538V322.821L157.24 308.17V303.167L151.783 298.879V292.805L137.231 279.583H126.316L117.221 271.007H113.583L88.5709 255.642V250.281H96.7567L98.5758 249.209V245.993H96.7567V240.633L91.7543 236.703V232.772H93.5733V230.628L85.8423 224.553V221.337L78.1113 213.833H69.4708L58.1017 207.401H48.5516L46.2778 209.545H43.0944L38.5468 210.974V212.404L42.1849 213.833V219.55H38.5468V216.692H33.9991L30.361 213.833V204.542L12.1704 199.539V194.894H15.3538V191.678L13.9895 189.891H7.62275L0.80127 188.462V172.382H2.16556L3.52986 169.88V165.235L16.2633 155.944H20.8109V161.304L27.6324 169.88V178.099H33.9991V179.529H31.2705V189.891H43.5492L53.554 185.246H62.1945V189.891H72.1994L74.0184 188.819H79.4756L89.0257 195.251H94.0281L98.5758 191.321H99.94L104.033 196.681V202.041L107.216 204.185L107.671 213.833L113.128 215.977V218.121L109.035 220.265V225.268L115.402 229.199H124.497L128.135 226.697V222.766H131.319L138.595 214.905L139.959 213.118L153.148 222.052H156.331L157.695 223.481V225.625L170.429 236.703V239.919H175.886V240.991H174.067V246.351H172.702V255.815L177.705 257.786V259.93L175.886 261.002V268.148H182.253V274.58H174.067V278.868L169.519 280.298V288.517H174.976V291.375L168.155 296.378H164.971V306.741H169.519V313.53H172.248V320.677H174.522L179.069 330.325H181.343V337.829L184.981 339.616V341.403L183.162 342.475L187.255 347.477H194.076V351.051L192.257 352.123V356.768H195.895L196.805 358.197Z" fill="#242833"/>
<rect x="128.438" y="243.675" width="18" height="22" rx="1.5" fill="#254594"/>
<rect x="128.438" y="243.675" width="18" height="22" rx="1.5" stroke="#5C76B6"/>
<path d="M132.813 257.902V256.482L137.841 248.538H138.96V250.629H138.25L134.654 256.322V256.413H141.546V257.902H132.813ZM138.33 260.175V257.47L138.341 256.822V248.538H140.006V260.175H138.33Z" fill="#B3CDEC"/>
<path d="M216.815 387.142V391.43L199.079 394.289L196.35 395.361H189.529V399.292H182.707L177.25 404.294H173.157L158.605 413.585H155.876L149.509 418.588L135.412 435.025L116.766 451.82L103.123 469.687L81.7494 488.269V492.557L76.747 496.487H71.2898V500.061L64.4684 505.421L59.9207 502.919H52.1897V500.418L62.1945 493.629L65.8326 492.557L66.2874 489.698L86.7518 477.549L96.7567 462.54V458.967L102.669 448.961L117.676 438.241L121.769 426.449V415.729L124.043 413.585V410.012H128.59V408.582L125.862 406.081V403.222L131.319 394.289V388.214L121.769 378.209V368.203H124.043L128.59 362.486V359.27L131.774 354.267V351.408H136.321V348.907L139.959 346.048L142.233 348.192H144.507L147.236 346.048H150.419L158.15 354.267V357.84L162.698 361.414H166.79L173.612 358.198H179.524V359.984H182.707L186.8 356.768H188.619V359.984L192.712 362.486V367.846H195.441L203.172 376.779H205.9V378.209H207.719H212.267V374.635L217.724 368.56V366.059L221.362 368.203V369.633H219.998V372.134H218.634V375.707V376.779V385.355L216.815 387.142Z" fill="#242833"/>
<rect x="145.389" y="366.455" width="17" height="22" rx="1.5" fill="#254594"/>
<rect x="145.389" y="366.455" width="17" height="22" rx="1.5" stroke="#5C76B6"/>
<path d="M150.009 382.955V381.683L153.946 377.603C154.367 377.16 154.713 376.772 154.986 376.438C155.263 376.101 155.469 375.781 155.605 375.478C155.742 375.175 155.81 374.853 155.81 374.512C155.81 374.126 155.719 373.793 155.537 373.512C155.355 373.228 155.107 373.01 154.793 372.859C154.478 372.704 154.124 372.626 153.73 372.626C153.314 372.626 152.95 372.711 152.639 372.882C152.329 373.052 152.09 373.293 151.923 373.603C151.757 373.914 151.673 374.277 151.673 374.694H149.997C149.997 373.986 150.16 373.366 150.486 372.836C150.812 372.306 151.259 371.895 151.827 371.603C152.395 371.308 153.041 371.16 153.764 371.16C154.495 371.16 155.139 371.306 155.696 371.597C156.257 371.885 156.694 372.279 157.009 372.779C157.323 373.276 157.48 373.836 157.48 374.461C157.48 374.893 157.399 375.315 157.236 375.728C157.077 376.141 156.798 376.601 156.401 377.109C156.003 377.613 155.45 378.224 154.742 378.944L152.429 381.365V381.45H157.668V382.955H150.009Z" fill="#B3CDEC"/>
</svg>
