<svg width="22" height="20" viewBox="0 0 22 20" fill="none" xmlns="http://www.w3.org/2000/svg">
<path d="M12.7744 13.5747C13.0355 13.5747 13.2654 13.4823 13.464 13.2975C13.6627 13.1127 13.762 12.8989 13.762 12.6561C13.762 12.4133 13.6627 12.1995 13.464 12.0147C13.2654 11.8299 13.0355 11.7376 12.7744 11.7376C12.5134 11.7376 12.2835 11.8299 12.0849 12.0147C11.8862 12.1995 11.7869 12.4133 11.7869 12.6561C11.7869 12.8989 11.8862 13.1127 12.0849 13.2975C12.2835 13.4823 12.5134 13.5747 12.7744 13.5747ZM12.215 10.2624H13.3339C13.3663 9.76923 13.4498 9.3978 13.5844 9.14818C13.719 8.89857 14.0425 8.55053 14.5549 8.10406C15.0901 7.65157 15.463 7.24773 15.6738 6.89253C15.8846 6.53733 15.99 6.12972 15.99 5.66968C15.99 4.87783 15.6864 4.21758 15.0791 3.68891C14.4718 3.16024 13.7036 2.89591 12.7744 2.89591C12.0723 2.89591 11.4484 3.07238 10.9028 3.42532C10.3571 3.77826 9.94157 4.25941 9.65618 4.86877L10.6826 5.28959C10.921 4.82957 11.2117 4.48455 11.5546 4.25453C11.8976 4.02451 12.3042 3.9095 12.7744 3.9095C13.3777 3.9095 13.8779 4.07579 14.2752 4.40838C14.6725 4.74095 14.8711 5.17043 14.8711 5.69682C14.8711 6.01659 14.7747 6.3141 14.5817 6.58935C14.3887 6.86463 14.0571 7.19608 13.5868 7.58371C13.0534 8.01659 12.6913 8.41365 12.5008 8.77488C12.3103 9.13612 12.215 9.63197 12.215 10.2624ZM5.96385 16.4706C5.38171 16.4706 4.89565 16.2892 4.50567 15.9265C4.11568 15.5637 3.92069 15.1116 3.92069 14.5701V1.90044C3.92069 1.35897 4.11568 0.906863 4.50567 0.544118C4.89565 0.181373 5.38171 0 5.96385 0H19.585C20.1672 0 20.6532 0.181373 21.0432 0.544118C21.4332 0.906863 21.6282 1.35897 21.6282 1.90044V14.5701C21.6282 15.1116 21.4332 15.5637 21.0432 15.9265C20.6532 16.2892 20.1672 16.4706 19.585 16.4706H5.96385ZM5.96385 15.2941H19.585C19.7796 15.2941 19.958 15.2187 20.1201 15.0679C20.2823 14.917 20.3634 14.7511 20.3634 14.5701V1.90044C20.3634 1.71946 20.2823 1.55355 20.1201 1.40271C19.958 1.25188 19.7796 1.17647 19.585 1.17647H5.96385C5.76928 1.17647 5.59091 1.25188 5.42873 1.40271C5.26658 1.55355 5.18551 1.71946 5.18551 1.90044V14.5701C5.18551 14.7511 5.26658 14.917 5.42873 15.0679C5.59091 15.2187 5.76928 15.2941 5.96385 15.2941ZM2.16938 20C1.58725 20 1.10119 19.8186 0.711201 19.4559C0.321214 19.0931 0.126221 18.641 0.126221 18.0996V4.25338H1.39104V18.0996C1.39104 18.2806 1.47212 18.4465 1.63427 18.5973C1.79642 18.7481 1.97479 18.8235 2.16938 18.8235H17.0554V20H2.16938Z" fill="#9FAEC0"/>
</svg>
