<svg width="18" height="20" viewBox="0 0 18 20" fill="none" xmlns="http://www.w3.org/2000/svg">
<path d="M8.77108 18.747C10.1494 18.747 11.3293 18.2562 12.3108 17.2747C13.2924 16.2932 13.7831 15.1133 13.7831 13.7349V8.7229C13.7831 7.34459 13.2924 6.16467 12.3108 5.18314C11.3293 4.20162 10.1494 3.71085 8.77108 3.71085C7.39277 3.71085 6.21285 4.20162 5.23132 5.18314C4.2498 6.16467 3.75903 7.34459 3.75903 8.7229V13.7349C3.75903 15.1133 4.2498 16.2932 5.23132 17.2747C6.21285 18.2562 7.39277 18.747 8.77108 18.747ZM6.65061 14.3615H10.8916V13.1084H6.65061V14.3615ZM6.65061 9.34941H10.8916V8.09639H6.65061V9.34941ZM8.77108 20C7.63854 20 6.59718 19.7221 5.64698 19.1663C4.69678 18.6104 3.93573 17.8442 3.36383 16.8675H0V15.6145H2.8241C2.63293 15.004 2.53213 14.3815 2.52169 13.747C2.51124 13.1125 2.50602 12.4819 2.50602 11.8554H0V10.6024H2.50602C2.50602 9.95985 2.50321 9.3213 2.4976 8.68675C2.49196 8.05223 2.60079 7.43777 2.8241 6.84338H0V5.59037H3.36383C3.67228 5.04579 4.05341 4.56065 4.50721 4.13494C4.96103 3.70925 5.47629 3.36386 6.05298 3.09879L3.80721 0.838576L4.64579 0L7.29155 2.6458C7.77992 2.50602 8.27068 2.43614 8.76384 2.43614C9.25703 2.43614 9.74779 2.50602 10.2361 2.6458L12.9446 0L13.7831 0.838576L11.5229 3.09879C12.0996 3.36386 12.6092 3.70804 13.0518 4.13133C13.4944 4.55462 13.8699 5.04097 14.1783 5.59037H17.5422V6.84338H14.7181C14.9414 7.43777 15.0502 8.05223 15.0446 8.68675C15.0389 9.3213 15.0361 9.95985 15.0361 10.6024H17.5422V11.8554H15.0361C15.0361 12.4819 15.0309 13.1125 15.0205 13.747C15.01 14.3815 14.9092 15.004 14.7181 15.6145H17.5422V16.8675H14.1783C13.6064 17.8442 12.8454 18.6104 11.8952 19.1663C10.945 19.7221 9.90361 20 8.77108 20Z" fill="#9FAEC0"/>
</svg>
