<svg width="21" height="20" viewBox="0 0 21 20" fill="none" xmlns="http://www.w3.org/2000/svg">
<path d="M19.2999 19.7981L11.8164 12.2321C11.2189 12.7464 10.5316 13.1445 9.75479 13.4265C8.97794 13.7084 8.19726 13.8494 7.41274 13.8494C5.49851 13.8494 3.87843 13.1795 2.55251 11.8396C1.22657 10.4998 0.563599 8.86276 0.563599 6.92846C0.563599 4.99416 1.2262 3.35584 2.5514 2.01351C3.87661 0.671169 5.49581 0 7.40901 0C9.32223 0 10.9427 0.670273 12.2703 2.01082C13.598 3.35136 14.2619 4.98932 14.2619 6.92469C14.2619 7.76432 14.1148 8.57684 13.8206 9.36226C13.5264 10.1477 13.1403 10.8192 12.6622 11.3769L20.1457 18.943L19.2999 19.7981ZM7.41274 12.641C8.99863 12.641 10.3374 12.0892 11.4291 10.9854C12.5209 9.88161 13.0667 8.52804 13.0667 6.92469C13.0667 5.32133 12.5209 3.96777 11.4291 2.86399C10.3374 1.76022 8.99863 1.20833 7.41274 1.20833C5.82688 1.20833 4.48808 1.76022 3.39635 2.86399C2.30464 3.96777 1.75878 5.32133 1.75878 6.92469C1.75878 8.52804 2.30464 9.88161 3.39635 10.9854C4.48808 12.0892 5.82688 12.641 7.41274 12.641Z" fill="#C0C5CC"/>
</svg>
