<svg width="21" height="19" viewBox="0 0 21 19" fill="none" xmlns="http://www.w3.org/2000/svg">
<path d="M7.81692 19L7.40379 15.9538C7.11308 15.8641 6.81506 15.7384 6.50973 15.5769C6.2044 15.4153 5.93142 15.2422 5.69077 15.0576L2.62993 16.2499L0.126221 12.25L2.77394 10.4058C2.74889 10.257 2.73115 10.1077 2.72072 9.95768C2.71028 9.80768 2.70507 9.65832 2.70507 9.5096C2.70507 9.36729 2.71028 9.22273 2.72072 9.07593C2.73115 8.92913 2.74889 8.76855 2.77394 8.5942L0.126221 6.74998L2.62993 2.76925L5.68033 3.95195C5.94184 3.76092 6.22109 3.58623 6.51806 3.4279C6.81505 3.26955 7.10681 3.1423 7.39335 3.04615L7.81692 0H12.8243L13.2375 3.05578C13.563 3.16474 13.8575 3.29198 14.1211 3.4375C14.3847 3.58302 14.6507 3.7545 14.9192 3.95195L18.0113 2.76925L20.515 6.74998L17.8256 8.62303C17.8646 8.78458 17.8858 8.93554 17.8892 9.07593C17.8927 9.21631 17.8945 9.35766 17.8945 9.49998C17.8945 9.63588 17.891 9.77402 17.884 9.9144C17.8771 10.0548 17.852 10.2154 17.8089 10.3962L20.4775 12.25L17.9738 16.2499L14.9192 15.048C14.6507 15.2455 14.3767 15.4201 14.0971 15.5721C13.8175 15.724 13.531 15.848 13.2375 15.9442L12.8243 19H7.81692ZM9.23567 17.5H11.368L11.7582 14.8211C12.3118 14.6878 12.8178 14.4984 13.2761 14.2529C13.7344 14.0074 14.1764 13.6917 14.6021 13.3058L17.2978 14.35L18.366 12.65L16.0125 11.0154C16.1029 10.7564 16.1645 10.5025 16.1972 10.2538C16.2298 10.0051 16.2462 9.75383 16.2462 9.49998C16.2462 9.23973 16.2298 8.98844 16.1972 8.74613C16.1645 8.50383 16.1029 8.25639 16.0125 8.00383L18.3869 6.34998L17.3186 4.64998L14.5916 5.7096C14.2286 5.3519 13.7936 5.03588 13.2865 4.76153C12.7795 4.48716 12.2666 4.29293 11.7478 4.17883L11.4056 1.49998H9.25235L8.8935 4.1692C8.33988 4.28972 7.82869 4.47433 7.35993 4.72305C6.89118 4.97177 6.44398 5.29228 6.01835 5.6846L3.32263 4.64998L2.25435 6.34998L4.59746 7.9596C4.50704 8.19677 4.44375 8.44356 4.40759 8.69998C4.37142 8.95639 4.35334 9.22627 4.35334 9.5096C4.35334 9.76985 4.37142 10.025 4.40759 10.275C4.44375 10.525 4.50356 10.7718 4.58701 11.0154L2.25435 12.65L3.32263 14.35L6.00791 13.3C6.41963 13.6897 6.85987 14.009 7.32863 14.2577C7.79739 14.5064 8.31553 14.6974 8.88306 14.8308L9.23567 17.5ZM10.3331 12.5C11.2359 12.5 12.004 12.208 12.6376 11.624C13.2712 11.04 13.588 10.332 13.588 9.49998C13.588 8.66794 13.2712 7.95993 12.6376 7.37595C12.004 6.79198 11.2359 6.5 10.3331 6.5C9.41929 6.5 8.64835 6.79198 8.02032 7.37595C7.39231 7.95993 7.07831 8.66794 7.07831 9.49998C7.07831 10.332 7.39231 11.04 8.02032 11.624C8.64835 12.208 9.41929 12.5 10.3331 12.5Z" fill="#9FAEC0"/>
</svg>
