<svg width="22" height="20" viewBox="0 0 22 20" fill="none" xmlns="http://www.w3.org/2000/svg">
<path d="M3.33968 20C2.44488 20 1.68561 19.7125 1.06187 19.1376C0.438104 18.5627 0.126221 17.8629 0.126221 17.0382V1.31396C0.126221 0.73807 0.394009 0.34025 0.929584 0.120497C1.46516 -0.0992294 1.93979 -0.0184527 2.35346 0.362828L4.86807 2.68053L3.55522 3.89054L4.35208 4.62496L5.6649 3.41495L9.2964 6.76208L7.98354 7.97209L8.78041 8.70651L10.0932 7.4965L13.8553 10.964L12.5425 12.174L13.3393 12.9085L14.6522 11.6985L18.2836 15.0455L16.9708 16.2556L17.7677 16.99L19.0805 15.78L21.4971 18.0074C21.889 18.3686 21.9658 18.791 21.7274 19.2746C21.489 19.7582 21.0682 20 20.4652 20H3.33968ZM3.6532 17.7124H16.703L2.60819 4.7213V16.7492C2.60819 17.0301 2.70616 17.2609 2.9021 17.4415C3.09804 17.6221 3.34841 17.7124 3.6532 17.7124Z" fill="#9FAEC0"/>
</svg>
