<svg width="20" height="20" viewBox="0 0 20 20" fill="none" xmlns="http://www.w3.org/2000/svg">
<path d="M2.01922 20C1.44391 20 0.963542 19.8073 0.578125 19.4219C0.192708 19.0365 0 18.5561 0 17.9808V2.01922C0 1.44391 0.192708 0.963542 0.578125 0.578125C0.963542 0.192708 1.44391 0 2.01922 0H10.024V1.25H2.01922C1.82693 1.25 1.65065 1.33013 1.49038 1.49038C1.33013 1.65065 1.25 1.82693 1.25 2.01922V17.9808C1.25 18.1731 1.33013 18.3494 1.49038 18.5096C1.65065 18.6699 1.82693 18.75 2.01922 18.75H10.024V20H2.01922ZM15.5769 14.4231L14.6995 13.524L17.5986 10.625H6.49037V9.375H17.5986L14.6995 6.47597L15.5769 5.57691L20 10L15.5769 14.4231Z" fill="#9FAEC0"/>
</svg>
