<svg width="31" height="29" viewBox="0 0 31 29" fill="none" xmlns="http://www.w3.org/2000/svg">
<path d="M17.7922 24.2997L8.15273 21.0794L1.7944 23.4268C1.38245 23.5723 1.00038 23.5295 0.648194 23.2985C0.29598 23.0675 0.119873 22.7427 0.119873 22.3239V3.56828C0.119873 3.29499 0.189384 3.0453 0.328406 2.81922C0.467428 2.59313 0.669789 2.43585 0.93549 2.34737L8.15273 0L17.7922 3.2203L24.1505 0.872892C24.5624 0.727417 24.9445 0.755429 25.2967 0.956928C25.6489 1.15845 25.825 1.45876 25.825 1.85785V20.8494C25.825 21.1423 25.7401 21.3969 25.5701 21.6132C25.4002 21.8294 25.1721 21.9818 24.8858 22.0703L17.7922 24.2997ZM16.9889 22.43V4.48837L8.95602 1.81069V19.7524L16.9889 22.43ZM18.5954 22.43L24.2184 20.6606V2.48895L18.5954 4.48837V22.43ZM1.72644 21.8107L7.34945 19.7524V1.81069L1.72644 3.63905V21.8107Z" fill="#9FAEC0"/>
<path d="M12.7773 15.9545V23.9317H26.279V15.1568L19.5282 11.9659L12.7773 15.9545Z" fill="#9FAEC0" stroke="#0F69AA" stroke-linecap="round"/>
<path d="M19.5287 28.7179L12.1523 24.7808V18.9309L8.55859 17.018L19.5287 11.1681L30.4988 17.018V24.7251H29.2694V17.6959L26.9052 18.9309V24.7808L19.5287 28.7179ZM19.5287 21.4844L27.9265 17.018L19.5287 12.5516L11.1309 17.018L19.5287 21.4844ZM19.5287 27.3413L25.6758 24.082V19.5948L19.5287 22.8636L13.3817 19.5948V24.082L19.5287 27.3413Z" fill="#9FAEC0"/>
</svg>
