<svg width="35" height="26" viewBox="0 0 35 26" fill="none" xmlns="http://www.w3.org/2000/svg">
<path d="M22.1566 18.6901C19.6634 14.5116 17.9905 9.86877 17.233 5.02518C17.0224 3.66198 16.8826 2.28813 16.8142 0.909529C16.8141 0.678677 16.7289 0.456498 16.5759 0.287989C16.4229 0.11948 16.2135 0.0172449 15.9901 0.00199022C15.7668 -0.0132644 15.5461 0.0596022 15.3729 0.205831C15.1997 0.35206 15.0869 0.560716 15.0573 0.789539C14.3145 4.93121 13.3915 10.0748 10.857 14.2584C9.21874 13.9473 7.56645 13.721 5.90624 13.5805C4.11248 13.4265 2.47968 13.3605 0.916705 13.3805C0.79746 13.3792 0.679147 13.4022 0.568505 13.4481C0.457898 13.4941 0.357183 13.5622 0.272131 13.6484C0.187079 13.7346 0.119411 13.8373 0.0729605 13.9506C0.0264741 14.0638 0.00217349 14.1854 0.00142082 14.3084C-0.00510234 14.4241 0.0108829 14.5399 0.0484089 14.649C0.0859708 14.7582 0.144321 14.8585 0.220018 14.9441C0.295751 15.0296 0.387291 15.0986 0.489295 15.1471C0.5913 15.1956 0.701692 15.2226 0.813948 15.2264L2.47194 15.3444C4.72916 15.5023 7.06198 15.6663 9.33666 16.0123L9.61397 16.0563C8.98513 16.853 8.26937 17.5724 7.48086 18.2001C7.41462 18.25 7.359 18.3133 7.31739 18.3862C7.27577 18.4591 7.24904 18.54 7.23886 18.6239C7.22871 18.7078 7.23527 18.793 7.25821 18.8742C7.28115 18.9554 7.31997 19.0309 7.37226 19.0961C7.42609 19.172 7.49405 19.2362 7.57218 19.2847C7.65035 19.3333 7.73709 19.3653 7.82734 19.3789C7.91762 19.3925 8.00963 19.3874 8.09798 19.3639C8.18629 19.3404 8.26923 19.2989 8.34184 19.242C9.40318 18.3989 10.3599 17.4243 11.1905 16.3403C13.1509 16.7208 15.0759 17.2748 16.9441 17.9961C18.2961 18.5275 19.6031 19.1737 20.8515 19.928C20.9592 19.9926 21.0785 20.0341 21.2021 20.0499C21.3258 20.0657 21.4512 20.0555 21.571 20.02C21.748 19.9699 21.9092 19.8726 22.0383 19.738C22.1731 19.6048 22.2587 19.4273 22.2803 19.236C22.3019 19.0447 22.2581 18.8517 22.1566 18.6901ZM18.54 15.7243C18.7068 16.0963 18.8833 16.4723 19.0733 16.8602C16.9285 15.8699 14.6914 15.1073 12.3967 14.5844C13.7541 12.3646 14.8168 9.66481 15.6506 6.35908C16.2303 9.59186 17.201 12.7368 18.54 15.7203V15.7243Z" fill="#5B6173"/>
<path d="M34.7926 18.1654C34.7021 18.0192 34.5606 17.9106 34.395 17.8599C34.2294 17.8093 34.0507 17.8201 33.8927 17.8904C29.5477 19.6132 25.0131 20.8256 20.3819 21.5026C20.3007 21.5131 20.2225 21.5396 20.1519 21.5805C20.0812 21.6215 20.0197 21.6761 19.9709 21.7411C19.9221 21.8061 19.887 21.8801 19.8678 21.9587C19.8486 22.0374 19.8456 22.1191 19.8589 22.199C19.868 22.2813 19.8935 22.3611 19.9341 22.4336C19.9747 22.5061 20.0294 22.5699 20.0952 22.6213C20.1609 22.6727 20.2364 22.7106 20.3171 22.7328C20.3979 22.7551 20.4823 22.7612 20.5655 22.7509C23.1794 22.4571 25.7665 21.9642 28.3035 21.2764C27.1165 21.814 25.8933 22.2702 24.6428 22.6417C21.4121 23.5974 17.7118 24.0733 13.6483 24.0558C12.0458 24.0558 10.4177 23.9466 8.84281 23.849C8.20736 23.8081 7.57779 23.7691 6.9364 23.734C6.6958 23.7139 6.45692 23.7889 6.27202 23.9424C6.08713 24.0959 5.97124 24.3154 5.94965 24.5531C5.93528 24.6671 5.94381 24.7828 5.97474 24.8936C6.00568 25.0043 6.05838 25.1079 6.12988 25.1985C6.20137 25.2891 6.29022 25.3648 6.39137 25.4214C6.49252 25.478 6.60395 25.5144 6.71933 25.5284C7.94886 25.7232 9.18798 25.8534 10.4315 25.9185C11.1854 25.9594 11.9847 25.9848 12.8372 25.9926C14.9005 26.03 16.964 25.9245 19.0123 25.6766C22.914 25.1695 26.4722 24.1163 29.5904 22.5325C31.4182 21.6211 33.1198 20.4804 34.6525 19.1387C34.7908 19.0204 34.8809 18.8568 34.9068 18.678C34.9323 18.4991 34.8918 18.3171 34.7926 18.1654Z" fill="#5B6173"/>
</svg>
