<svg width="21" height="19" viewBox="0 0 21 19" fill="none" xmlns="http://www.w3.org/2000/svg">
<path d="M3.94862 14.7923C4.87084 14.1615 5.87547 13.6635 6.96251 13.2981C8.04955 12.9327 9.20649 12.75 10.4333 12.75C11.6602 12.75 12.8171 12.9327 13.9042 13.2981C14.9912 13.6635 15.9958 14.1615 16.918 14.7923C17.5927 14.109 18.1272 13.3179 18.5215 12.4192C18.9159 11.5205 19.113 10.5474 19.113 9.49998C19.113 7.28331 18.2677 5.39581 16.5769 3.83748C14.8862 2.27914 12.8383 1.49998 10.4333 1.49998C8.02833 1.49998 5.98047 2.27914 4.28974 3.83748C2.599 5.39581 1.75364 7.28331 1.75364 9.49998C1.75364 10.5474 1.95081 11.5205 2.34516 12.4192C2.73951 13.3179 3.27399 14.109 3.94862 14.7923ZM10.4337 10.25C9.44307 10.25 8.60769 9.93659 7.9275 9.30988C7.24732 8.68314 6.90723 7.91328 6.90723 7.00028C6.90723 6.08726 7.24722 5.31729 7.92718 4.69038C8.60716 4.06346 9.44244 3.75 10.433 3.75C11.4236 3.75 12.259 4.06336 12.9392 4.69008C13.6193 5.31681 13.9594 6.08668 13.9594 6.99968C13.9594 7.91269 13.6195 8.68266 12.9395 9.30958C12.2595 9.93649 11.4242 10.25 10.4337 10.25ZM10.4333 19C9.00201 19 7.65938 18.7519 6.40544 18.2557C5.15148 17.7596 4.0606 17.0839 3.13281 16.2288C2.20504 15.3737 1.47201 14.3682 0.933704 13.2125C0.395382 12.0567 0.126221 10.8192 0.126221 9.49998C0.126221 8.18074 0.395382 6.94325 0.933704 5.7875C1.47201 4.63173 2.20504 3.62628 3.13281 2.77115C4.0606 1.91603 5.15148 1.2404 6.40544 0.744251C7.65938 0.248084 9.00201 0 10.4333 0C11.8647 0 13.2073 0.248084 14.4612 0.744251C15.7152 1.2404 16.8061 1.91603 17.7339 2.77115C18.6616 3.62628 19.3947 4.63173 19.933 5.7875C20.4713 6.94325 20.7404 8.18074 20.7404 9.49998C20.7404 10.8192 20.4713 12.0567 19.933 13.2125C19.3947 14.3682 18.6616 15.3737 17.7339 16.2288C16.8061 17.0839 15.7152 17.7596 14.4612 18.2557C13.2073 18.7519 11.8647 19 10.4333 19ZM10.4333 17.5C11.4126 17.5 12.3567 17.3548 13.2657 17.0644C14.1747 16.774 14.9818 16.3679 15.6871 15.8461C14.9818 15.3436 14.1852 14.9519 13.297 14.6711C12.4089 14.3903 11.4543 14.25 10.4333 14.25C9.41235 14.25 8.45604 14.3887 7.56442 14.6663C6.6728 14.9439 5.87786 15.3371 5.17959 15.8461C5.88482 16.3679 6.69194 16.774 7.60096 17.0644C8.50996 17.3548 9.45408 17.5 10.4333 17.5ZM10.4333 8.75C10.973 8.75 11.4244 8.58269 11.7875 8.24808C12.1505 7.91344 12.332 7.49741 12.332 6.99998C12.332 6.50254 12.1505 6.08651 11.7875 5.75188C11.4244 5.41726 10.973 5.24995 10.4333 5.24995C9.89364 5.24995 9.44226 5.41726 9.07919 5.75188C8.71614 6.08651 8.53462 6.50254 8.53462 6.99998C8.53462 7.49741 8.71614 7.91344 9.07919 8.24808C9.44226 8.58269 9.89364 8.75 10.4333 8.75Z" fill="#9FAEC0"/>
</svg>
