<svg width="18" height="24" viewBox="0 0 18 24" fill="none" xmlns="http://www.w3.org/2000/svg">
<path d="M0.613403 20.4615V19.2115H2.61059V9.30769C2.61059 7.67469 3.12179 6.2384 4.14418 4.99881C5.16655 3.75921 6.46235 2.98717 8.03159 2.68269V2C8.03159 1.65277 8.15151 1.35763 8.39137 1.11456C8.63122 0.871521 8.92249 0.75 9.26517 0.75C9.60783 0.75 9.90001 0.871521 10.1417 1.11456C10.3834 1.35763 10.5043 1.65277 10.5043 2V2.68269C12.0735 2.98717 13.3693 3.75921 14.3917 4.99881C15.4141 6.2384 15.9253 7.67469 15.9253 9.30769V19.2115H17.9225V20.4615H0.613403ZM9.26375 23.7308C8.71336 23.7308 8.24359 23.5331 7.85445 23.1376C7.46532 22.7422 7.27076 22.2668 7.27076 21.7115H11.2651C11.2651 22.2708 11.0692 22.7472 10.6772 23.1406C10.2853 23.5341 9.81413 23.7308 9.26375 23.7308ZM3.84696 19.2115H14.6889V9.30769C14.6889 7.78846 14.1611 6.49519 13.1054 5.42788C12.0498 4.36058 10.7706 3.82694 9.26795 3.82694C7.76529 3.82694 6.48613 4.36058 5.43046 5.42788C4.37479 6.49519 3.84696 7.78846 3.84696 9.30769V19.2115Z" fill="#C0C5CC"/>
</svg>
