<svg width="563" height="506" viewBox="0 0 563 506" fill="none" xmlns="http://www.w3.org/2000/svg">
<path d="M71.0185 500.991L64.197 505.994L59.6494 503.493H51.9184V500.991L61.9232 494.202L65.5613 492.773L66.0161 490.271L86.4805 478.122L96.4853 463.113V459.54L102.397 449.535L117.405 438.815L121.497 427.022V416.302L123.771 414.158V410.585H128.319V409.155L125.59 407.011V403.795L131.047 394.862V388.787L121.497 378.782V368.776H123.771L128.319 363.059V359.843L131.502 354.84V351.981H136.05V349.48L139.688 346.621L141.962 348.765H144.236L146.964 346.621H150.148L157.879 354.84V358.414L162.426 361.987H166.519L173.341 358.771H174.25L174.705 342.691H171.067V331.971L167.883 329.112V323.394L156.969 308.744V303.741L151.512 299.453V293.378L136.959 280.157H126.045L116.95 271.58H113.312L88.2996 256.215V250.855H96.4853L98.3044 249.783V246.567H96.4853V241.207L91.4829 237.276V233.345H93.302V231.201L85.571 225.127V221.91L77.84 214.406H69.1994L57.8303 207.974H48.2802L46.0064 210.118H42.8231L38.2754 211.548V212.977L41.9135 214.406V220.124H38.2754V217.265H33.7278L30.0896 214.406V205.116L11.899 200.113V195.467H15.0824V192.251L13.7181 190.465H7.35138L0.529907 189.035V172.955H1.8942L3.2585 170.454V165.808L15.9919 156.518H19.63V143.654L29.6349 106.133L34.6373 102.202L35.5468 86.4795L36.9111 81.8341L42.3683 75.402V70.0419L45.5516 68.6126L42.3683 62.8952V31.4494L51.0088 34.6655H55.5565L63.2875 40.0255H69.6542L94.2115 49.6737L97.3949 48.959L121.043 59.6791H125.59L145.145 67.5406L148.783 66.8259L158.788 72.5433V75.0446H161.517L223.365 76.1167L230.641 81.8341H236.553V80.4047H247.922V92.1969L252.924 101.488L262.02 102.917L267.477 106.848H272.479L277.937 114.352H280.21V113.637H285.668L287.487 115.781H295.672L297.037 122.213L304.768 129.717H309.315L311.134 130.789V134.72L316.137 138.651H330.235H350.699L362.068 146.87V150.8L366.161 149.728L377.075 140.08V134.72L388.899 125.429H392.083L396.63 116.496L416.64 101.488H419.823V97.9143L423.916 94.6982H427.554L435.285 88.2661L460.752 75.402V66.1112L467.119 62.1805L471.212 48.6017H477.578L483.945 43.5989H494.405L505.319 36.8095V32.8788L506.683 31.0921V28.2334L509.867 25.732H513.505V22.8733L523.51 15.3692V12.8679L526.693 11.0812V7.86514H528.967L530.786 0.718384H562.619V29.6627L557.162 36.8095V41.4549L553.979 44.6709V70.7566H544.884V68.9699H528.512L525.783 71.8286H523.51L521.691 75.7593H517.598L509.867 81.8341V84.6928H506.229V87.1941H504.41L499.407 91.8395V94.6982L496.224 97.1996V101.488L493.04 103.989V115.066H488.948L485.764 117.925H481.216L478.943 116.496H473.031L460.297 122.213V124H456.204L439.833 134.72H435.285L429.373 141.867L422.552 144.726L415.73 156.16L407.545 157.232L395.266 168.667V176.529L388.899 185.105V191.894H385.261L383.897 196.897L377.985 200.47H375.711L371.163 205.116H369.344L365.251 214.764L355.247 217.98L348.425 226.913L337.966 235.847L329.78 251.927L310.225 273.724L308.861 281.229L303.858 285.874V295.879L296.582 306.957V314.461H295.672V316.248V324.824L294.308 325.538L292.034 330.541H293.399V333.4H294.308V338.403H295.672V348.765L297.946 350.909V360.558L305.677 366.275V371.635H303.858V376.28H301.13L297.037 373.422H279.301L272.934 378.424L265.658 382.712L263.839 389.502L260.655 390.574L252.015 400.937V402.723L244.739 413.086L242.92 418.446L238.372 424.521L231.096 422.734L227.003 421.305L222.455 419.876V415.945H228.822L231.096 417.374H237.462V411.657L233.824 410.585V407.726L237.462 405.582V400.937L225.639 392.003H216.089L198.353 394.505L195.624 395.577H189.257V399.865H182.436L176.524 404.867H172.886L158.333 413.801H155.605L148.783 419.518L135.14 435.598L116.495 452.393L102.852 470.26L81.4781 488.842V493.13L76.0209 497.061H71.0185V500.991Z" fill="#4D5466"/>
</svg>
