<svg width="313" height="316" viewBox="0 0 313 316" fill="none" xmlns="http://www.w3.org/2000/svg">
<path d="M46.8536 306.384V313.888H41.8512L40.0322 315.317H34.575V312.458H29.5726V301.738L15.0201 297.45L19.5677 277.439H36.394V272.794L31.8464 270.292V268.506L37.7583 265.647H45.4893L48.6727 257.071L52.7656 255.284L50.037 247.78H45.4893L41.8512 248.852H37.7583L34.575 245.279H31.8464L25.9344 234.201H21.8416V227.412H24.1154V217.406H15.0201V221.694H5.01525L0.922363 219.193V211.332L6.83431 197.038V189.891H19.5677V180.601H24.1154L25.9344 177.742H28.663L31.8464 180.601H40.0322L41.8512 177.742H45.4893L50.037 182.03H55.0394L62.3156 173.454V168.808H70.5014L78.2324 162.734V153.443L80.5062 147.726V138.077H100.971L112.34 146.296V150.227L116.433 149.155L127.347 139.507V134.147L139.171 124.856H142.354L146.902 115.922L166.912 100.914H170.095V97.3409L174.188 94.1249H177.826L185.557 87.6928L211.024 74.8286V65.5378L217.391 61.2498L221.483 48.0283H227.85L234.217 43.0256H244.676L255.591 36.2361V32.3054L256.955 30.5187V27.66L260.138 25.1587H263.777V22.3L273.781 14.7959V12.2945L276.965 10.5078V7.29178H279.239L281.058 0.14502H312.891V29.0894L307.434 36.2361V40.8815L304.251 44.0976V70.1832H295.155V68.3965H278.784L276.51 71.2552H273.327L271.508 74.8286H267.869L259.684 81.2607V84.1194H256.5V86.6208H254.226L249.224 91.6235V94.1249L246.041 96.2689V100.914L243.312 103.416V114.493H239.219L236.036 117.352H231.488L229.214 115.922H223.757L210.569 121.283V123.427H206.476L190.559 134.147H185.557L180.1 141.293L172.824 144.152L166.002 155.587L157.816 156.659L145.538 167.736V175.955L139.171 184.531V191.321H135.533L134.169 195.966L128.711 199.897H125.983L121.89 204.542H119.616L115.523 214.19L105.518 217.406L98.6968 225.983L88.2372 235.273L80.0515 250.996L60.4966 272.794L59.1323 280.655L54.1299 285.301V295.306L46.8536 306.384Z" fill="#242833"/>
<rect x="91.745" y="167.728" width="18" height="22" rx="1.5" fill="#254594"/>
<rect x="91.745" y="167.728" width="18" height="22" rx="1.5" stroke="#5C76B6"/>
<path d="M100.296 184.387C99.4817 184.387 98.762 184.247 98.137 183.966C97.5158 183.686 97.0291 183.3 96.6768 182.807C96.3245 182.315 96.1503 181.754 96.1541 181.126C96.1503 180.633 96.2507 180.18 96.4552 179.768C96.6636 179.351 96.9458 179.004 97.3018 178.728C97.6579 178.448 98.0556 178.27 98.495 178.194V178.126C97.9154 177.985 97.4514 177.675 97.1029 177.194C96.7545 176.713 96.5821 176.16 96.5859 175.535C96.5821 174.94 96.7393 174.41 97.0575 173.944C97.3795 173.474 97.8208 173.105 98.3814 172.836C98.942 172.567 99.5802 172.432 100.296 172.432C101.004 172.432 101.637 172.569 102.194 172.841C102.754 173.11 103.196 173.48 103.518 173.949C103.84 174.415 104.003 174.944 104.006 175.535C104.003 176.16 103.825 176.713 103.472 177.194C103.12 177.675 102.662 177.985 102.097 178.126V178.194C102.533 178.27 102.925 178.448 103.273 178.728C103.626 179.004 103.906 179.351 104.114 179.768C104.326 180.18 104.434 180.633 104.438 181.126C104.434 181.754 104.256 182.315 103.904 182.807C103.552 183.3 103.063 183.686 102.438 183.966C101.817 184.247 101.103 184.387 100.296 184.387ZM100.296 182.949C100.777 182.949 101.194 182.87 101.546 182.711C101.898 182.548 102.171 182.323 102.364 182.035C102.557 181.743 102.656 181.402 102.66 181.012C102.656 180.607 102.55 180.249 102.342 179.938C102.137 179.627 101.859 179.383 101.506 179.205C101.154 179.027 100.751 178.938 100.296 178.938C99.8378 178.938 99.4306 179.027 99.0745 179.205C98.7185 179.383 98.4382 179.627 98.2336 179.938C98.0291 180.249 97.9287 180.607 97.9325 181.012C97.9287 181.402 98.0215 181.743 98.2109 182.035C98.4041 182.323 98.6787 182.548 99.0348 182.711C99.3908 182.87 99.8113 182.949 100.296 182.949ZM100.296 177.535C100.682 177.535 101.025 177.457 101.325 177.302C101.624 177.146 101.859 176.93 102.029 176.654C102.203 176.377 102.292 176.054 102.296 175.682C102.292 175.319 102.205 175.001 102.035 174.728C101.868 174.455 101.635 174.245 101.336 174.097C101.037 173.946 100.69 173.87 100.296 173.87C99.8946 173.87 99.5423 173.946 99.2393 174.097C98.9401 174.245 98.7071 174.455 98.5404 174.728C98.3738 175.001 98.2923 175.319 98.2961 175.682C98.2923 176.054 98.3757 176.377 98.5461 176.654C98.7166 176.93 98.9514 177.146 99.2507 177.302C99.5537 177.457 99.9022 177.535 100.296 177.535Z" fill="#B3CDEC"/>
</svg>
