<svg width="90" height="112" viewBox="0 0 90 112" fill="none" xmlns="http://www.w3.org/2000/svg">
<path d="M76.3056 3.3171H79.9437V4.03177V12.2505L79.0341 12.9652L76.7603 17.9679H77.6699V20.8266H78.5794V25.8294H79.9437V36.1922L81.7627 37.9789L82.2175 47.9843L89.9485 53.7017V59.4191H88.5842V63.7072H85.4009L81.7627 60.8485H63.5721L57.2054 65.8512L49.9292 70.1393L48.1101 77.286L45.3815 78.0007L36.2862 88.7208V90.1502L29.01 100.156L27.1909 105.873L22.6433 111.948L20.8242 111.59L15.3671 110.161L11.7289 108.732L7.18128 107.302V103.729H13.0932L15.3671 105.158H21.7338V99.4409L18.0956 98.0116V95.1529L21.7338 93.0089V88.3635L10.3646 79.43H2.63364V75.8567L4.45269 74.4273V61.5632H5.81699V59.0618H7.18128V55.8457L1.72411 52.2724V46.1976L0.814575 45.483V44.0536H3.54316L6.72652 46.555V51.5577H11.7289V50.4857L16.2766 47.2696V40.1229L26.2814 33.6908V31.1894L32.1934 22.9707H35.3767V21.184L37.1958 19.8258V13.6799L44.9268 12.2505L46.2911 11.1785V8.67717L51.2935 7.24781L52.6578 5.10379L59.934 3.3171V0.815735H62.2078V1.88775H66.7555V4.74645H74.9413L76.3056 3.3171Z" fill="#242833"/>
<rect x="35.3362" y="31.6713" width="15" height="22" rx="1.5" fill="#254594"/>
<rect x="35.3362" y="31.6713" width="15" height="22" rx="1.5" stroke="#5C76B6"/>
<path d="M44.3703 36.535V48.1713H42.6089V38.2963H42.5407L39.7566 40.1145V38.4327L42.66 36.535H44.3703Z" fill="#B3CDEC"/>
</svg>
