<svg width="168" height="141" viewBox="0 0 168 141" fill="none" xmlns="http://www.w3.org/2000/svg">
<path d="M167.232 73.7254V64.0773H155.408L150.406 60.1466V56.2159L148.587 55.1439H144.039L136.308 47.6398L134.944 41.2077H126.758L124.939 39.0637H119.482V39.7783H117.208L111.751 32.2743H106.748L101.291 28.3435L92.1957 26.9142L87.1933 17.9807V5.83126H75.8242V7.26061H69.9122L62.636 1.5432L0.787964 0.471191V3.68723L10.7928 14.05V23.6981L28.5286 47.9971L18.9786 58.0026H13.5214L7.15467 65.864V71.2241L3.06179 76.2268L1.24273 82.6589V87.3043L22.6167 115.177V131.614L15.7952 137.332V140.548H27.1643L39.443 132.686V127.326L50.8121 118.393L58.5431 116.963L83.1004 137.689H87.1933L93.56 122.323V113.747H106.748V105.171H111.751L114.934 101.24H117.663L121.755 105.171H127.213L130.851 101.598H134.944L139.946 106.243H143.129L149.041 98.7391V93.0217H158.591L164.958 88.0189V79.0855L167.232 73.7254Z" fill="#242833"/>
<rect x="66.3217" y="59.5518" width="18" height="22" rx="1.5" fill="#254594"/>
<rect x="66.3217" y="59.5518" width="18" height="22" rx="1.5" stroke="#5C76B6"/>
<path d="M75.0035 76.2109C74.4845 76.2033 73.9732 76.1086 73.4694 75.9268C72.9694 75.745 72.5148 75.442 72.1057 75.0177C71.6967 74.5935 71.369 74.0234 71.1228 73.3075C70.8804 72.5916 70.7592 71.6977 70.7592 70.6257C70.7592 69.6105 70.8595 68.709 71.0603 67.9211C71.2648 67.1333 71.5584 66.4685 71.941 65.9268C72.3235 65.3814 72.7857 64.9666 73.3273 64.6825C73.869 64.3984 74.477 64.2564 75.1512 64.2564C75.8444 64.2564 76.4599 64.3927 76.9978 64.6655C77.5357 64.9382 77.9713 65.3151 78.3046 65.7961C78.6417 66.2772 78.8557 66.8245 78.9467 67.4382H77.2137C77.0963 66.9533 76.8633 66.5575 76.5148 66.2507C76.1664 65.9439 75.7118 65.7905 75.1512 65.7905C74.2989 65.7905 73.6342 66.1617 73.1569 66.9041C72.6834 67.6465 72.4448 68.6787 72.441 70.0007H72.5262C72.727 69.6711 72.9732 69.3908 73.2648 69.1598C73.5603 68.9249 73.8898 68.745 74.2535 68.62C74.6209 68.4912 75.0073 68.4268 75.4126 68.4268C76.0868 68.4268 76.6967 68.5916 77.2421 68.9211C77.7914 69.2469 78.2289 69.6977 78.5546 70.2734C78.8804 70.8492 79.0432 71.5083 79.0432 72.2507C79.0432 72.9931 78.8747 73.6655 78.5376 74.2677C78.2042 74.87 77.7345 75.3473 77.1285 75.6995C76.5224 76.048 75.8141 76.2185 75.0035 76.2109ZM74.9978 74.7336C75.4448 74.7336 75.8444 74.6238 76.1967 74.4041C76.5489 74.1844 76.8273 73.8889 77.0319 73.5177C77.2364 73.1465 77.3387 72.7317 77.3387 72.2734C77.3387 71.8264 77.2383 71.4192 77.0376 71.0518C76.8406 70.6844 76.5679 70.3927 76.2194 70.1768C75.8747 69.9609 75.4807 69.853 75.0376 69.853C74.7004 69.853 74.3879 69.9173 74.1001 70.0461C73.816 70.1749 73.566 70.353 73.3501 70.5802C73.1342 70.8075 72.9637 71.0689 72.8387 71.3643C72.7175 71.656 72.6569 71.9647 72.6569 72.2905C72.6569 72.7261 72.7573 73.1295 72.958 73.5007C73.1626 73.8719 73.441 74.1711 73.7932 74.3984C74.1493 74.6219 74.5508 74.7336 74.9978 74.7336Z" fill="#B3CDEC"/>
</svg>
