<svg width="168" height="198" viewBox="0 0 168 198" fill="none" xmlns="http://www.w3.org/2000/svg">
<path d="M150.519 68.7702L167.8 91.9971L160.069 100.573H154.157L146.881 109.507V114.509L143.243 119.512L140.969 126.302V132.019L162.343 159.534V163.465L154.612 161.678H147.336V166.681L150.519 169.182V173.47H153.702V174.899H150.064L144.152 180.974H140.059L131.874 176.686L124.597 183.833L119.14 180.26V183.118L111.409 191.337H107.316V195.625L104.588 197.769H96.8568L91.8544 194.553V191.337L95.9472 188.836V184.905L90.4901 183.118L90.0353 173.113L86.8519 171.326V166.323L81.8495 159.891H79.1209L73.6638 163.822H70.4804L60.9303 157.39H53.6541L52.2898 158.462H45.0136V153.817H33.6444L24.0944 158.462H14.0896V150.958H16.3634V146.67H10.4514V139.523L4.08472 130.947V124.872H0.901367V113.08L10.9062 75.5596L15.9086 71.6289L16.8181 56.2633L18.1824 51.2606L23.6396 44.8285V39.4685L26.823 38.0391L23.6396 32.3217V0.875977L32.2801 4.09202H36.8278L44.5588 9.45208H50.9255L75.4828 19.1002L78.6662 18.3855L102.314 29.1057H106.862L126.416 36.9671L130.055 36.2524L140.059 41.9698V48.0446L150.519 58.4074V68.7702Z" fill="#242833"/>
<rect x="59.9956" y="85.831" width="17" height="22" rx="1.5" fill="#254594"/>
<rect x="59.9956" y="85.831" width="17" height="22" rx="1.5" stroke="#5C76B6"/>
<path d="M65.007 102.331L70.0865 92.2855V92.2003H64.2115V90.6946H71.9047V92.2514L66.8422 102.331H65.007Z" fill="#B3CDEC"/>
</svg>
