<svg width="75" height="184" viewBox="0 0 75 184" fill="none" xmlns="http://www.w3.org/2000/svg">
<path d="M71.9051 166.269V171.272V174.846L66.448 181.278V183.779H63.2646V182.35H60.0812L53.2598 174.846V166.269H55.0788V165.197L52.805 162.696H50.0764V159.837L51.8955 159.123V153.048H44.6192L41.4359 149.832L42.8002 148.76V146.259L39.1621 143.757V135.896H36.4335L31.8858 126.248H30.0668V119.101H27.3382V112.311H22.7905V104.807H25.0643L32.7953 98.7327V94.0873H27.3382V88.3699L31.8858 86.5832V83.0098H40.0716V73.719H33.7049V68.7163L35.5239 67.6443V63.7135L30.9763 61.9269V54.4228H31.8858V49.42H33.7049V45.4893H28.2477V43.3453L15.5143 32.2678V29.7665L12.7857 27.6224H10.0571L0.961792 21.5477L7.3285 15.4729L14.6047 19.4037H20.0619L25.9739 13.3289H30.5215V9.04087H27.3382V5.46749L24.1548 2.60879V0.107422H29.1572L37.7978 2.25145V11.8996L30.9763 17.617V22.977H45.074L56.4431 15.4729L58.2622 16.1876V22.2624H60.9908L71.9051 34.7692V44.4173L70.0861 46.461V53.7081L69.1765 54.7801V62.2842L67.8122 63.7135H66.448L64.6289 61.9269H60.0812V69.4309L65.5384 74.0763H68.7218V76.5777L71.9051 79.4364V86.9405H73.7242V88.3699L74.6337 88.7272V89.7992V93.7299L68.267 100.877V106.237L70.0861 107.309V110.167L71.9051 111.954V125.176L66.448 128.034V130.893L63.2646 131.965V135.181L70.0861 142.328H74.6337V147.331L71.9051 149.475V157.336L73.7242 159.123L74.6337 161.624H70.9956V166.269H71.9051Z" fill="#242833"/>
<rect x="38.1177" y="91.1796" width="18" height="22" rx="1.5" fill="#254594"/>
<rect x="38.1177" y="91.1796" width="18" height="22" rx="1.5" stroke="#5C76B6"/>
<path d="M46.7881 107.839C46.0078 107.839 45.3109 107.704 44.6972 107.435C44.0874 107.166 43.6044 106.793 43.2484 106.316C42.8961 105.835 42.7067 105.278 42.6802 104.645H44.4643C44.487 104.99 44.6025 105.289 44.8109 105.543C45.023 105.793 45.2995 105.986 45.6404 106.123C45.9813 106.259 46.3601 106.327 46.7768 106.327C47.2351 106.327 47.6404 106.248 47.9927 106.089C48.3487 105.93 48.6271 105.708 48.8279 105.424C49.0287 105.136 49.129 104.805 49.129 104.43C49.129 104.039 49.0287 103.697 48.8279 103.401C48.6309 103.102 48.3412 102.867 47.9586 102.697C47.5798 102.526 47.1215 102.441 46.5836 102.441H45.6006V101.009H46.5836C47.0154 101.009 47.3942 100.931 47.7199 100.776C48.0495 100.621 48.3071 100.405 48.4927 100.128C48.6783 99.8481 48.7711 99.5205 48.7711 99.1455C48.7711 98.7856 48.6896 98.4731 48.5268 98.208C48.3677 97.939 48.1404 97.7288 47.8449 97.5773C47.5533 97.4258 47.2086 97.35 46.8109 97.35C46.4321 97.35 46.0779 97.4201 45.7484 97.5602C45.4226 97.6966 45.1574 97.8936 44.9529 98.1512C44.7484 98.4049 44.6385 98.7099 44.6234 99.0659H42.9245C42.9434 98.4371 43.129 97.8841 43.4813 97.4068C43.8374 96.9296 44.3071 96.5565 44.8904 96.2875C45.4737 96.0186 46.1215 95.8841 46.8336 95.8841C47.5798 95.8841 48.2237 96.0299 48.7654 96.3216C49.3109 96.6095 49.7313 96.994 50.0268 97.475C50.326 97.9561 50.4737 98.4826 50.4699 99.0546C50.4737 99.7061 50.2919 100.259 49.9245 100.714C49.5609 101.168 49.076 101.473 48.4699 101.628V101.719C49.2427 101.837 49.8412 102.144 50.2654 102.64C50.6934 103.136 50.9056 103.752 50.9018 104.486C50.9056 105.127 50.7275 105.7 50.3677 106.208C50.0116 106.716 49.5249 107.115 48.9074 107.407C48.29 107.695 47.5836 107.839 46.7881 107.839Z" fill="#B3CDEC"/>
</svg>
