<svg width="99" height="171" viewBox="0 0 99 171" fill="none" xmlns="http://www.w3.org/2000/svg">
<path d="M75.7531 110.81V119.386H72.5697V122.245L65.2935 124.032L63.9292 126.176L58.472 127.962V130.106L57.5625 131.178L49.3767 132.608V139.04L47.5576 140.469V141.541H45.2838L38.4623 150.832V152.976L28.4575 159.051V166.555L24.3646 169.413V170.486H22.0908V165.84L18.9074 163.339L17.5432 159.408L15.7241 157.979V151.547L18.4527 149.403V142.256H12.9955L7.08356 135.824V134.037L10.2669 132.965V130.106L15.7241 127.248V112.239L13.905 110.81V107.951L12.086 106.522V102.234L18.4527 95.0872V90.7992H19.3622V88.6552H17.5432V86.5111H15.7241V80.079L12.5407 76.863V73.647H8.44785L3.9002 69.7162V64.3562H5.71926L7.53832 66.1429H9.81215L12.9955 63.9988V56.4948L13.905 55.7801V48.276L15.7241 45.7746V35.4118L3.9002 21.833H2.08114V16.4729L0.262085 15.7582V10.0408L10.7217 1.82207L17.0884 0.750061L41.6457 21.833H46.6481V27.5504L52.5601 31.4811H64.8387V26.8357H70.2959V33.9825H68.0221V43.6306H72.5697L78.9364 55.0654H81.665L85.3031 58.6388H90.3055L93.9437 57.2094H96.6723L98.4913 62.5695L94.8532 64.3562L92.1246 72.2176H84.8484L78.0269 75.791V79.007L82.5745 81.5084V84.0098H66.203L60.7458 106.165L75.7531 110.81Z" fill="#242833"/>
<rect x="30.9722" y="56.7377" width="17" height="22" rx="1.5" fill="#254594"/>
<rect x="30.9722" y="56.7377" width="17" height="22" rx="1.5" stroke="#5C76B6"/>
<path d="M39.4324 73.3968C38.7203 73.3968 38.0801 73.2605 37.5119 72.9877C36.9475 72.7112 36.4968 72.3324 36.1597 71.8514C35.8225 71.3703 35.6426 70.8211 35.6199 70.2036H37.3244C37.3661 70.7036 37.5877 71.1146 37.9892 71.4366C38.3907 71.7586 38.8718 71.9196 39.4324 71.9196C39.8794 71.9196 40.2752 71.8173 40.6199 71.6127C40.9684 71.4044 41.2411 71.1184 41.4381 70.7548C41.6388 70.3911 41.7392 69.9764 41.7392 69.5105C41.7392 69.037 41.6369 68.6146 41.4324 68.2434C41.2279 67.8722 40.9457 67.5805 40.5858 67.3684C40.2297 67.1563 39.8207 67.0483 39.3585 67.0445C39.0063 67.0445 38.6521 67.1052 38.296 67.2264C37.94 67.3476 37.6521 67.5067 37.4324 67.7036L35.8244 67.465L36.4778 61.6014H42.8756V63.107H37.9381L37.5688 66.3627H37.6369C37.8642 66.143 38.1653 65.9593 38.5403 65.8116C38.9191 65.6639 39.3244 65.59 39.7563 65.59C40.4646 65.59 41.0953 65.7586 41.6483 66.0957C42.2051 66.4328 42.6426 66.893 42.9608 67.4764C43.2828 68.0559 43.4419 68.7226 43.4381 69.4764C43.4419 70.2302 43.2714 70.9025 42.9267 71.4934C42.5858 72.0843 42.1123 72.5502 41.5063 72.8911C40.904 73.2283 40.2127 73.3968 39.4324 73.3968Z" fill="#B3CDEC"/>
</svg>
