<svg width="170" height="160" viewBox="0 0 170 160" fill="none" xmlns="http://www.w3.org/2000/svg">
<path d="M164.815 41.1421V45.4301L147.079 48.2888L144.35 49.3608H137.529V53.2915H130.707L125.25 58.2943H121.157L106.605 67.5851H103.876L97.5094 72.5878L83.4117 89.0253L64.7663 105.82L51.1234 123.687L29.7494 142.269V146.557L24.747 150.487H19.2898V154.061L12.4684 159.421L7.9207 156.919H0.189697V154.418L10.1945 147.629L13.8326 146.557L14.2874 143.698L34.7518 131.549L44.7567 116.54V112.967L50.6686 102.961L65.6759 92.2414L69.7687 80.4492V69.7291L72.0426 67.5851V64.0117H76.5902V62.5823L73.8616 60.081V57.2223L79.3188 48.2888V42.2141L69.7687 32.2086V22.2032H72.0426L76.5902 16.4858V13.2697L79.7736 8.26699V5.40828H84.3212V2.90692L87.9593 0.0482178L90.2332 2.19224H92.507L95.2356 0.0482178H98.4189L106.15 8.26699V11.8404L110.698 15.4137H114.79L121.612 12.1977H127.524V13.9844H130.707L134.8 10.7683H136.619V13.9844L140.712 16.4858V21.8458H143.441L151.172 30.7793H153.9V32.2086H155.719H160.267V28.6352L165.724 22.5605V20.0591L169.362 22.2032V23.6325H167.998V26.1339H166.634V29.7073V30.7793V39.3554L164.815 41.1421Z" fill="#242833"/>
<rect x="93.3894" y="20.4554" width="17" height="22" rx="1.5" fill="#254594"/>
<rect x="93.3894" y="20.4554" width="17" height="22" rx="1.5" stroke="#5C76B6"/>
<path d="M98.0087 36.9554V35.6827L101.946 31.6032C102.367 31.16 102.713 30.7717 102.986 30.4384C103.263 30.1013 103.469 29.7812 103.605 29.4782C103.742 29.1751 103.81 28.8532 103.81 28.5123C103.81 28.1259 103.719 27.7926 103.537 27.5123C103.355 27.2282 103.107 27.0104 102.793 26.8589C102.478 26.7036 102.124 26.6259 101.73 26.6259C101.314 26.6259 100.95 26.7111 100.639 26.8816C100.329 27.052 100.09 27.2926 99.9235 27.6032C99.7568 27.9138 99.6735 28.2774 99.6735 28.6941H97.9974C97.9974 27.9857 98.1602 27.3664 98.486 26.8361C98.8118 26.3058 99.2587 25.8948 99.8269 25.6032C100.395 25.3077 101.041 25.16 101.764 25.16C102.495 25.16 103.139 25.3058 103.696 25.5975C104.257 25.8854 104.694 26.2793 105.009 26.7793C105.323 27.2755 105.48 27.8361 105.48 28.4611C105.48 28.8929 105.399 29.3153 105.236 29.7282C105.077 30.1411 104.798 30.6013 104.401 31.1089C104.003 31.6126 103.45 32.2244 102.742 32.9441L100.429 35.3645V35.4498H105.668V36.9554H98.0087Z" fill="#B3CDEC"/>
</svg>
