<svg width="197" height="212" viewBox="0 0 197 212" fill="none" xmlns="http://www.w3.org/2000/svg">
<path d="M196.805 203.197L195.441 203.555L195.895 211.416H194.076V206.771L190.438 204.269V200.696H185.891L182.253 203.912H180.888V202.125H174.522L174.976 194.264V187.117H171.338V176.397L168.155 173.538V167.821L157.24 153.17V148.167L151.783 143.879V137.805L137.231 124.583H126.316L117.221 116.007H113.583L88.5709 100.642V95.2814H96.7567L98.5758 94.2094V90.9934H96.7567V85.6333L91.7543 81.7026V77.7719H93.5733V75.6279L85.8423 69.5531V66.3371L78.1113 58.833H69.4708L58.1017 52.4009H48.5516L46.2778 54.5449H43.0944L38.5468 55.9743V57.4036L42.1849 58.833V64.5504H38.5468V61.6917H33.9991L30.361 58.833V49.5422L12.1704 44.5395V39.8941H15.3538V36.6781L13.9895 34.8914H7.62275L0.80127 33.462V17.3818H2.16556L3.52986 14.8804V10.2351L16.2633 0.944275H20.8109V6.30434L27.6324 14.8804V23.0992H33.9991V24.5286H31.2705V34.8914H43.5492L53.554 30.246H62.1945V34.8914H72.1994L74.0184 33.8194H79.4756L89.0257 40.2514H94.0281L98.5758 36.3207H99.94L104.033 41.6808V47.0408L107.216 49.1849L107.671 58.833L113.128 60.977V63.121L109.035 65.2651V70.2678L115.402 74.1985H124.497L128.135 71.6972V67.7664H131.319L138.595 59.905L139.959 58.1183L153.148 67.0518H156.331L157.695 68.4811V70.6251L170.429 81.7026V84.9186H175.886V85.9907H174.067V91.3507H172.702V100.815L177.705 102.786V104.93L175.886 106.002V113.148H182.253V119.58H174.067V123.868L169.519 125.298V133.517H174.976V136.375L168.155 141.378H164.971V151.741H169.519V158.53H172.248V165.677H174.522L179.069 175.325H181.343V182.829L184.981 184.616V186.403L183.162 187.475L187.255 192.477H194.076V196.051L192.257 197.123V201.768H195.895L196.805 203.197Z" fill="#242833"/>
<rect x="128.438" y="88.6747" width="18" height="22" rx="1.5" fill="#254594"/>
<rect x="128.438" y="88.6747" width="18" height="22" rx="1.5" stroke="#5C76B6"/>
<path d="M132.813 102.902V101.482L137.841 93.5383H138.96V95.6292H138.25L134.654 101.322V101.413H141.546V102.902H132.813ZM138.33 105.175V102.47L138.341 101.822V93.5383H140.006V105.175H138.33Z" fill="#B3CDEC"/>
</svg>
